<?xml version="1.0" encoding="UTF-8"?>
<svg version="1.1" viewBox="0 0 2048 583" width="1280" height="1280" xmlns="http://www.w3.org/2000/svg">
<path transform="translate(329,27)" d="m0 0 6 1 1-1h6l4 2 8-1 2-1 7 3 2 1v2l7-1h5l2 2 8 2 10 1 9 4 7 2 6 1 9 3 16 9 12 5 14 9 18 11 13 10 28 28 8 10 8 12 9 14 14 26 11 28 8 27 3 13 1 9 1 2 1 11v25l-1 31-2 7-3 5-6 22-2 12-9 21-4 7-2 8-4 8-5 8-7 13-10 13-8 11-9 10-7 8-14 12-12 7-6 3-7 6-12 6-11 7-4 2-16 9-5 3-2-1 5-7-9 5-6 4-9 3-4 2-16 3-8 4-4 1-4-1v2l-13 5-6-2h-3-6l-5 3-7-1-4-2-2 2-10-1-5 1-10-2-3 1-6-2-4-1v-2h-12l-9-4h-7l-27-10-23-10-14-8-14-10-13-10-12-9-26-26-13-17-11-16-14-27-15-38-4-16-2-22-4-4 1-13-3-4 1-7 1-2 2-16v-7l-3-1-1-3 5-5 4-20 2-13 5-16 5-19 6-15 11-19 5-10 9-12 4-6 11-10 8-12 7-7 8-10 10-8 12-9 13-8 11-8 10-5 17-8 3-1 4-1 10-4 16-6h14l5-4h9l2 1 1-2h5l4 1 5-2h-3l1-3h10v2l5-2 4 1v2l4-1v-2zm-17 3m4 1v2h2v-2zm9 0m22 0m-35 2m-39 14m97 36m-83 2 1 2zm11 1m-22 2-4 7-3 10h-2l-2 4-2 8-1 2v1l-1-7-3 1-2 9-3 13-4 14-1 6-3-8h-2v8 3l-1 1v-13l-3-3v2h-2v-2h-2l-1 7-3-4h-3l-2-4-3-1-2-3-1 6-3-7-2 2-2-4-1 3v3l-5-5-1 5-5-5-1 2 6 11-1-1-6-5h-3l-3-6-1 2 3 7h2l-1 2-3-1-1-3-2 1 2 5h2l-2 2-5-4-2 2-3-1v2l-2 1 1 3 5 5 2 3h3l1 8-9-13-4-1-1-3h-2l-1 4-1 3 1 4-1 1-2-2v8l1 4 2 9h-2l-1-6-2 2v7h-2l-1 4v9h-2l1-3-2-6-4 5-2 9-1 12-6 20-6 23-5 5-3 4h2l1 2h1v7l4 1-1 5v24l1 6h4l3-4 3-2 2 11 1 13-2 19-1 4v8l4 15 6 10 6 9-5-4h-2l-2-4-1 3 11 18 8 11 5 6h2l-1-5-3-8 7 8 7 11 7 10 2-1-2-12 4 5 3 6 3 4 3 11 2-1 1-5h2l2 2h4l1 13 3 3 3-13 2 1 3 12v9h2l3-14h2l1 5h1l1-7 2 1 1 12 2 6h3l1 3 2-10 1-8 3 19 3 1v2h2l1-22-2-7h-2v-2l5 5 4 27 3 5h2l1-20h2l3 21 3 3h3l1-15 2 12 2 4 8 2-1-15h1l2 12 7 3-1-22 3 3-1 2v14l8-1 1-2 5 1 4-1v-2h8l4-4 3-1 1 2 11 1 8-3-2-24-2-11 3-1 2 4h2l2 4h2l2 11 1 11h4v-14l-3-7-1-12 2 3 3 3 3 8 4-2-1-2v-6l2 5h3l3-3v-6l5 4 1-2 2 1 1-4 4 1-1-6h3l1 3 4-2 1-4 2-3 1-1 4 1v-5l5 2h4l1 2 6 1-2-6-4-1-2-4-6-7-1-2 3 3 5 2 3 4v-2h2v2l7 3 4 3h2l-2-6-6-7 2 1 5 3 4 1 2 3h2l1-3-1-5 6 3 4-1 4-16 2 1 6-13 2-4 1 8 2-1 1-8-2-4 2-4 3-1 1 5v6l3 2 1-1v-9l-1-3h-2v-2l4-1 2-9v-2h3l-1 2v8h3l2-6v-9l-1-1 2-1v-6l5-10 1-9h2l2 4v-4l4 1 2-1v-2h-2l1-2v-15l-3-1-2-5-11-11h-2l-2-4-9-10-4-6h-2v-2h-2v-2l6 4 1 2 5-1 1 5 3-1-1-2 3-1 7 2-2-5-2-2h-5l5-1h4l1 2h2v-3l-7-5-1-3 6 1-2-5-1-2h-2v-10l-3-4 1-1 4-2-2-4 5 2-1 3 2 1v2h5l-1-6h2l1 4 3-7 1-9 2-4h-2v-2h3l1-3-1-3 2-1 1 2 1-5-1-4 2-1-4 1v4l-3 1-1 3-5-1 4-1 2-4-1-6v-3l-2-2-2 1-1-4h2v-3l-5-2v2l-3-3h-2l1-2h2l1 3 2-2 2 1-1-5-1 2-6-5-2-2h-4v-2h-4l1-3h-3l-1 1-1-4-2-1v2l-3-1-2 2h-2l-1-2-5-5 1-3-6-8h-3l-1 3-1-3h-2v-2l-6 1-1-3v-2h-2l-1-7-1-3h-2l-2 4-8-8-3-1 2 10-2-3 1-2-2-3h-2l-1-2h-3l-1-2-3-1-1-2h-2v8l-5-5-6-10-2-3-1 11-1 1-2-5-2 3-1-8-3-1-1 7-2-2h-3l-1-4-2 1v5l-2-3h-2l-1-3-1 3-5-5h-1l-1 5-4-4-2 2-3-1 1-3h-3l-2 4-2-2-1 1-2-3v5h-2l1-4-2-3-3 1-1 5-4-1-1-4h-2v-7l-4-6-1 2h-3v2l2 1 2 3v3l-2-2-2 1-1-3-2-10-3-4-1 8 1 5h-2l1 9 1 6h-2v2h-3v-2h-2l2-12 1-2-2-10 1-2h-2v-3h-2l-1 11-2 1 1 5-2 10-2-9-1-1h1v-5h-2v-4h3l-1-5-4 2-2 7v10h-2l1-5-2-3 1-7 1-3-3-2-2 5-3 1v-3l-3-3h-2v3h-2l-1 5 1-11-2-6-3 1-3 8v6l-1-4v-7l-2-4-3-1-4 14v-9l-1-3h-2l-3 10v-13zm36 1-1 4 2 1v-5zm-4 2-3 2 1 4v-3h3zm22 1m-9 2m1 1 1 2zm8 0m45 7 1 3 1-3zm-107 1m85 1v7l4 3-1-8h-2zm-29 1m51 0 1 2zm-50 2m40 2m-2 4 1 2zm12 2 1 3zm32 2 1 3zm20 0 1 2zm-70 1m42 0 1 3zm29 1 1 2zm-3 1 2 6 1-4zm-42 1m7 0m10 0 2 4-1-4zm20 1m-25 1m-60 1m-82 2 1 2zm199 2 1 3v-3zm-11 3m1 1 1 3zm-17 1m-219 3m253 0v3h2l-1-3zm-239 2m-22 1m1 1m269 1m-280 1 2 3v-3zm9 0v2l2-1zm291 1 1 4 1-2zm-26 1m3 1 1 3v-3zm-287 1 1 3v-3zm10 0m274 0v2l2-1zm-278 1 1 2zm299 1-1 4-1 8 4 1 1 2 1-2-2-11 2-1zm-12 1v5h3l-2-5zm4 1m15 0-2 1 1 10 2 1 3 5 3 1v2l5 3-1-7-3-1-2-5-1-6-3 1 1-3zm8 0m-10 5m-315 3m328 1m-14 1m16 4m4 0m-333 1m312 0-2 3 4 2-1-5zm22 0m-4 1m1 1m3 2 1 4 1-3zm-15 1m18 2 1 3 2-1zm-6 2 1 4 2-1v-2zm4 3m4 1 1 5h2l-2-5zm9 15v3zm0 5m2 6 2 2v-2zm8 0m7 10v6l2-1-1-5zm-31 25 1 2zm-1 5m-2 1v3l3-1-1-2zm4 0m-1 2 1 3 2-2zm3 0m1 1m-5 1m0 3m10 1m-6 16m5 0 1 2zm-381 2-2 3 4-2zm380 0m-384 3-2 3 4-2zm-3 3m381 0m-14 3m6 2 2 2v-2zm1 3 3 3 2-1-2-2zm5 3m1 1m2 1m7 6m0 4m1 1m1 2 1 3v-3zm13 25 1 3zm0 8-2 7-2 3v6l6-2v-2l-2-1 2-5 2 1-1-5h-2zm-11 1m-4 2-5 6 1 3h-3l-1 3 2 5v9h3l3-17 2-4-1-5zm4 0-1 3 2 2v-5zm12 5 1 2zm-12 2 1 2zm-3 5v5l3-3zm9 1 1 2zm5 1m-6 1m9 0 1 4zm-18 3 1 4zm-10 3m25 0-1 4h-4l-1-2v6l1-2 6-1 1-5zm-22 9m15 0m-24 13 1 2zm-11 8m-1 1 1 3zm8 0 1 2zm2 2 1 2zm-8 2v4h2v-4zm7 0-1 6 2 1 1-6zm-15 1-2 8 1 4 4-4v-3h-2v-5zm4 1m-1 2 1 2zm5 3m-1 1m8 0m-11 1v5l2-1 1-4zm6 3 1 2zm-15 1-3 7-2 2 4-1 3-2-1-6zm-3 12m-8 5m-1 3m-13 5v2l2-1zm-33 9m-47 21-3 9 1 2v13l2 3 4-1 1-5-2-9-1-12zm23 5v4h2v-4zm-8 2m2 2-2 12 4-1-1-11zm7 1-1 1v5l2-1v-5zm-26 16m-30 6m9 0m30 0m-19 1m-14 1m4 0m0 2m-6 1m34 1 1 2 2-1zm-26 1m8 1 1 2zm2 1m8 0m-49 3 4 7 1-4-2-3zm-7 4-1 5 2 1 1-6zm10 4 1 4 1-4zm-11 3v10h1v-10zm12 1-2 13h2l1-4v-9zm12 0m-1 1 1 2zm7 1-1 7 3-1 1-3zm-8 1v7h1v-7zm17 0 1 3v-2h2v2h2l-1-3zm17 0-2 6 1 2 3-7zm-20 5m-1 1-2 7 3 1v-8zm9 0 1 6 3-1-2-5zm-16 1m-5 1v4h2l-1-4zm4 0-1 2h2zm-1 3-1 2h2z" fill="#FECED8"/>
<path transform="translate(329,27)" d="m0 0 6 1 1-1h6l4 2 8-1 2-1 7 3 2 1v2l7-1h5l2 2 8 2 10 1 9 4 7 2 6 1 9 3 16 9 12 5 14 9 18 11 13 10 28 28 8 10 8 12 9 14 14 26 11 28 8 27 3 13 1 9 1 2 1 11v25l-1 31-2 7-3 5-6 22-2 12-9 21-4 7-2 8-4 8-5 8-7 13-10 13-8 11-9 10-7 8-14 12-12 7-6 3-7 6-12 6-11 7-4 2-16 9-5 3-2-1 5-7-9 5-6 4-9 3-4 2-16 3-8 4-4 1-4-1v2l-13 5-6-2h-3-6l-5 3-7-1-4-2-2 2-10-1-5 1-10-2-3 1-6-2-4-1v-2h-12l-9-4h-7l-27-10-23-10-14-8-14-10-13-10-12-9-26-26-13-17-11-16-14-27-15-38-4-16-2-22-4-4 1-13-3-4 1-7 1-2 2-16v-7l-3-1-1-3 5-5 4-20 2-13 5-16 5-19 6-15 11-19 5-10 9-12 4-6 11-10 8-12 7-7 8-10 10-8 12-9 13-8 11-8 10-5 17-8 3-1 4-1 10-4 16-6h14l5-4h9l2 1 1-2h5l4 1 5-2h-3l1-3h10v2l5-2 4 1v2l4-1v-2zm-17 3m4 1v2h2v-2zm9 0m22 0m-35 2m-19 6-15 3-9 4-4 3-1 3-6 3-9 2-5 1-13 3-6 3-5 4-3 1-2 6-2 2-4-1-5-2-4 2 1 5 1 2h-3l-7 7 6 7 5 2 3 7-7 2-14 10-3 3v3l-5 2-7 6 1 5v7l-4 9-5 5v2h-2l-8 8-5 1-5-2h-3l-1-8-3-1-7 11-6 12-8 27-3 7-3 13v8l5 3 10 1 4-2 3-5 3-3v-2l4-2 5-6 2-1v-2l4-2 3-3 1-8h2l1-2 1 12h2l-7 25-6 23-2 3-10 4-9 5-11 8-3 3 1-4 5-2v-2h2l3-4 2-12 3-1 1-5-1-4-6-3-12-5-5 1-1-5h-2l2-15 5-16 3-9 2-7 4-8 6-17 3-7 18-22 9-12 2-10-4 2-13 12-9 8-2 5-7 7-3 4v2h-2l-2 7h7l-5 9-6 18-7 16-7 23-6 26-1 5v48l3 20 6 35 8 21 2 4h2l1 6 2 4 10 6-2-6-6-15-1-3 4 4 14 22 7 8 4 7h2l2 4 12 12 11 6 8 7 14 9 5 4h2l2 4h3v2l5 1v2l9 5 8-1 7 3 9 3 25 9 10 3 3 3 4 5 8-1-1 6-6 6v6l3 3 7 3 16 10 21 4h28v-2l6-1 5-4 3-9h-3l-1 2-7-1-1 4-4-2-10 1 1-3-3-3v6l-6-1-1-10h-2l-2-4-5-2v-4l11 3 5 2 24 2 15 1 15-4 12-4 16-7v-4l8 1 3-2 10-3v-2l6-2 8-6 3-4 1-7 4-2 9-9 6-8 13-12 10-9 5-4 8-7 3-3 3-5 6-7 2-5 1-8h3v2l4-2 8-14 2-3 1-7 6-13 4-9 9-21 4-14-2-5-4-1-2-4h-2l-1-4-6-1-10 7-2 7v22l-4-10-5-19-3-5-6-1-1 2h-2l-2-10-3-3 6-14 3-9 4 1-4 13-3 5v3l4 2h6l6 5 4 7h6l2-4-2-11 5 3h2l1-2v-13l-3-22-4-23-3-6-4 4v2h-2l1-7-1-10 3-2 1-11-2-10h-2l-2-8-5-4-1-2h-2l-2-4-8-7-6-2 2 9 5 11 1 7v4l-4-4-6-14-8-18-6-10-4-8-3-7-3-1v-5-2l2-5-3-6-5-7-1-5-13-11-15-10-12-7-3 1 2 6-3 1 1 5 3 1 3-3 3 2 6 2 10 6 7 4 2 2 1 4h-4l-1-2-7-3-3-1v-2l-9-4-2-2-3 1-3 3-5-1-4-2h-14l-3-9-5-5-10-4-3-1v-5l6-1 5-3v-2l-13-5-14-1-2 3-5-1-2-1-16-1 1 5 2 3v3l-2 1-1-3-6-2-5-6-9-3-5 2v3l-4-1v-3l3-2v-5l-2-2-24-2-3-1zm45 480m15 3 1 3v-2h2v2h2l-1-3z" fill="#FCFBFC"/>
<path transform="translate(152,116)" d="m0 0h2l-2 10-7 9-10 13-9 10-3 5-4 13-6 15-2 3-3 11-4 11-3 15-1 8h2l1 5 5-1 12 5 6 3 1 7-2 3h-2l-2 12-3 4h-2v2l-5 2v3l10-8 10-6 8-4 2 1-3 3 4 3-1 7 5 1-1 5v30h4l1-5 5-1 3 8 1 16-2 19-1 4v8l4 15 6 10 6 9h-3l-1-3-4-1-2-3 2 6 16 24 5 6 2 1-6-14 1-2 11 14 9 14 3 3-2-9 1-4 5 6 3 6 3 4 3 10 2-6 5 2 4 1 1 13 1 2 2-7 2-5 3 1 3 12v7l-1 2h2l2-12 1-2h2l1 3 2-6 3 2 1 12 1 6h4l3-21h1l2 21 1 4 2 1v2h2v-22l-1-7h-2v-2l4 2 2 3 4 27 2 5h2v-20l3-2 2 8 2 15 5 3v-15l2-1 2 13 1 4 7 1-1-14 2-3 2 10v5l5 1 1 1v-21l3 1 1 3-1 1-1 14 4-2h3l2-4 1 3h8v-2l10-2 2-3 15 2 7-2-2-24-1-11h2v-6h1l2 9h2l2 3 2-2 3 11 1 14h2v-14l-3-7-1-12 2-2 3 6 2 2 2 8 3-3-1-1v-6l2-2 1 7h3l1-3h2v-6l3 1 1 2 2-2h1l1-3 5 2-1-6h3l1 2 3-1 1-5 2-2 1-3 4 1 1-4 5 2 5 1v2l4-1-1-4-3-1-4-6-5-5v-2l3 1v2l5 1 3 3h2v2l6 1 7 5-2-4 1-4 5 3 1 3 2-1 1-2h4l3 4-1 35-4 12-5 5-9 5h-2v2l-12 4-4 1-5-1v4l-21 9-14 4-10 2-29-2-12-2-8-3-4-1v4l5 2 2 4h2v11l4-1 6 1h2l-1 7 1 1 1-7 2-2 5 1 2 4v3l2-1-1-7 1-2 7 1 1 7-5 4-6 1v2h-28l-21-4-16-10-9-4-1-2v-6l5-5 2-3v-4l-8 1-4-5-3-3-33-11-6-3-9-3-7-1-4 1-9-5v-2l-5-1v-2h-4l-1-4-5-2-9-7-10-6-6-6-10-5-14-14v-2h-2l-6-10-7-8-12-19-4-4 6 16 3 6-1 2-6-5-3-1-3-6v-4h-2l-8-19-3-11-5-30-3-20v-48l6-27 5-17 5-15 8-19 3-10 5-9h-7l2-7h2l2-4 7-8 2-2 2-5 8-7 8-8zm-17 155-2 3 4-2zm-4 3-2 3 4-2zm-3 3m325 156v2l2-1zm-33 9m-47 21-3 9 1 2v13l2 3 4-1 1-5-2-9-1-12zm23 5v4h2v-4zm-8 2m2 2-2 12 4-1-1-11zm7 1-1 1v5l2-1v-5zm-26 16m-30 6m9 0m30 0m-19 1m-14 1m4 0m0 2m-6 1m34 1 1 2 2-1zm-26 1m8 1 1 2zm2 1m8 0m-49 3 4 7 1-4-2-3zm-7 4-1 5 2 1 1-6zm10 4 1 4 1-4zm-11 3v10h1v-10zm12 1-2 13h2l1-4v-9zm16 10m-5 1v4h2l-1-4zm4 0-1 2h2zm-1 3-1 2h2z" fill="#B6A1D0"/>
<path transform="translate(1674,205)" d="m0 0h22l3 3 6 16 17 41 11 27 3 1 20-47 16-39 5-2h22l14 1v141h-28l-1-42v-65l-5 10-15 36-13 30-4 6h-25l-5-5-10-24-21-49-3-4 1 106-1 1h-25l-1-1v-140z" fill="#FDFCFD"/>
<path transform="translate(324,202)" d="m0 0 19 1 12 5 10 7 8 9 8 14 4 10 3 14v17l7 20 2 11v11l-3 14-4 10-8 12-11 11-14 8-14 4-16 1-14-2-13-5-11-7-7-6-8-11-5-10-4-14-1-5v-8l4-21 4-12 1-19 4-17 7-14 8-11 8-7 8-5 8-3zm4 12-7 1-11 4-12 11-6 10-4 10-3 15 5-1 6-5 10-5 10-3 8-1h15l16 4 14 7 5 4h2l-2-10-5-14-6-10-10-10-10-5-9-2zm10 62-11 2-6 4v3l6 1 4 12 1-4-2-7 3-1 6 4 7 7 6 10 1 5-3 11-4 7-5 5-5 4-7-1 2-1-1-8 6 2-6-8-5-8h-2l-3 9 1 4v8l-2 4-7-3-1-2h-5l2 6 6 7 8 6 12 5 5 1h10l10-3 9-5 6-5 6-9 4-9 1-6v-13l-4-11-6-9-8-8-12-5-7-1zm-48 7v3h-2l-1 5 4 2 2-2v-6zm42 15 1 2zm1 3 1 3zm1 4 1 3zm1 5 1 3zm-21 2m22 2 1 2zm1 3 1 2zm1 2 1 2zm1 2-1 7h2l1-5zm-30 3 1 2zm10 0m-1 1m-1 1m-9 1 1 2zm7 1-2 3 4-1zm22 0m-30 1-1 3h2z" fill="#FCFBFC"/>
<path transform="translate(1849,204)" d="m0 0h56l20 2 12 4 11 7 7 8 4 8 3 14v13l-3 14-6 10-5 6-10 6-4 1 4 7 12 16 14 19 5 6v2h-32l-4-4-14-19-8-12-6-8-1-1h-25l-1 44h-29zm29 24v52h27l13-2 9-6 5-9 2-10-4-13-7-8-7-3-12-1z" fill="#FDFCFD"/>
<path transform="translate(1567,385)" d="m0 0h10l16 4 11 6 10 9 7 10 5 14v25l-4 11-7 11-8 8-10 6-10 4-12 2-14-1-10-3-15-7-3 3-9 20-3 3-4-1v-113l3-7 5-2h32zm-18 26-5 5-11 12 1 4 6 4 7-1 7-6 1-2v-11l-4-5z" fill="#BB27CD"/>
<path transform="translate(559,295)" d="m0 0 6 1 1 4h2l2 4 5 2 1 4-4 14-7 16-8 19-3 6-2 9-10 17-4 2v-2h-3l-2 11-3 5-5 5-4 6-7 7-6 4-8 8-8 7-11 10-6 8-8 8-1-3 1-35-2 1v-5h-4v4l-4-1v-3l-5-2-2 1-6-7 1-2 7 5 4 1 4 4-1-6 3-3 4 3h4l2-14 2-3 1 1 6-12 2-8 2 4 1 7 1-8-2-5 3-3h2l1-2 2 6v6l2 1v-12h-2v-2l3-1 3-11h3v10l2-3 1-3v-9l-1-2h3l-1-6 5-10 2-9h2l1 1v-5l1 4h6v-2h-2v-17l-3-3v-2l5 2 2 5h3l-1 13 1 4 2 1-1 2h2l1 4-3 5v5l5-1v-2l-3-1 2-5 2-2v-2l-2-1 3-2 2-8 2 2 1 8 4 2 1-8 1-3v-21l3-6zm-38 42m-4 2-5 6 1 3h-3l-1 3 2 5v9h3l3-17 2-4-1-5zm4 0-1 3 2 2v-5zm12 5 1 2zm-12 2 1 2zm-3 5v5l3-3zm9 1 1 2zm5 1m-6 1m9 0 1 4zm-18 3 1 4zm-10 3m25 0-1 4h-4l-1-2v6l1-2 6-1 1-5zm-22 9m15 0m-24 13 1 2zm-11 8m-1 1 1 3zm8 0 1 2zm2 2 1 2zm-8 2v4h2v-4zm7 0-1 6 2 1 1-6zm-15 1-2 8 1 4 4-4v-3h-2v-5zm4 1m-1 2 1 2zm5 3m-1 1m8 0m-11 1v5l2-1 1-4zm6 3 1 2zm-15 1-3 7-2 2 4-1 3-2-1-6z" fill="#E2C5E2"/>
<path transform="translate(1457,385)" d="m0 0h13l14 4 11 6 8 6 4 4-1 3-14-3h-9l-13 4-10 6-7 8-5 12-1 13 3 10 4 6 7 5 9 3h7l12-6 9-10 5-5 10-5h3l-1 13-6 11-9 11-10 7-12 5-11 2h-8l-12-2-16-8-11-11-8-14-3-9-1-6v-10l4-15 6-11 9-10 8-6 13-6z" fill="#F90FB6"/>
<path transform="translate(1128,245)" d="m0 0h9l9 2 8 5 5 6 4 9 2 2 7-9 7-7 14-7 7-1h8l12 3 8 7 6 12 2 8 1 13v58l-1 1h-13l-1-58-1-11-5-12-7-6-2-1h-15l-10 4-7 7-8 14-1 9-1 54h-14l-1-68-3-10-7-8-9-3-11 1-10 5-7 7-6 10-2 13-1 53h-13v-100h11l1 22 11-13 10-7 8-3z" fill="#FDFCFD"/>
<path transform="translate(640,209)" d="m0 0h56l17 3 12 5 11 8 7 7 8 13 5 16 2 15-1 18-4 16-7 14-9 10-9 8-11 4-9 1h-68zm15 12-1 7v111l1 1h36l14-2 12-5 8-6 7-7 6-11 4-14 1-8v-13l-2-13-4-12-7-11-10-9-11-5-9-2-13-1z" fill="#FDFCFD"/>
<path transform="translate(519,159)" d="m0 0 6 2 10 9v2h2l4 5 2 1 2 8h2l2 11-1 10-3 2 1 10-1 7h2l2-5h3l2 5 6 36 1 9v13l-1 2-5-2-2-1 2 12-2 3h-6l-5-8-5-4h-7l-3-2 1-5 4-8 2-8-4-1-3 9-6 15 3 2 2 10 2-1 5-1 4 4 3 9 5 18 2 9-4 4-3-1-1-10-3 7-4 1h-3l-1-2h-1l-1-6 1-10 1-2h-2l-1 2-3-7-6-3-15-15-9-10-3-5-2-1v-2h-2v-2l5 2 2 4 5-1 1 4h2l1-4 7 1v2h2l-4-6-5-1 1-2h5 3l1 3h2v-3l-5-2-5-6 1-2 7 3-3-5v-2l-3 1v-11l-3-4 1-3 1 2 3-2-1-4 5 1 1 2h-2v2l3-1-1 4 3-1 2 1-1-6h2l1 2 4-9 4-4h3l1-7 1-1 3-16 3 1v2h2l2 2-2-6 3-1-5-5-3-9-5-6-4-9-3-1-4-13zm20 55v6l2-1-1-5zm-31 25 1 2zm-1 5m-2 1v3l3-1-1-2zm4 0m-1 2 1 3 2-2zm3 0m1 1m-5 1m0 3m10 1m-6 16m5 0 1 2zm-1 2m-6 6m-14 3m6 2 2 2v-2zm1 3 3 3 2-1-2-2zm5 3m1 1m2 1m7 6m0 4m1 1m1 2 1 3v-3zm13 25 1 3z" fill="#FBCDD9"/>
<path transform="translate(427,418)" d="m0 0 3 1v2l5 1 3 3h2v2l6 1 7 5-2-4 1-4 5 3 1 3 2-1 1-2h4l3 4-1 35-4 12-5 5-9 5h-2v2l-12 4-4 1-3-1-2 1h-7l-9-3-5-9-4-2-5 1-1 2 10 1 2 6-9 1-2-2h-6l-4-3-3-1v2h-5l-3-11v-7l-1-6 1-2-2 1-2 8 1 2v10l-1 4h-3l-2-23-1-11h2v-6h1l2 9h2l2 3 2-2 3 11 1 14h2v-14l-3-7-1-12 2-2 3 6 2 2 2 8 3-3-1-1v-6l2-2 1 7h3l1-3h2v-6l3 1 1 2 2-2h1l1-3 5 2-1-6h3l1 2 3-1 1-5 2-2 1-3 4 1 1-4 5 2 5 1v2l4-1-1-4-3-1-4-6-5-5zm26 15v2l2-1zm-33 9m-24 26v4h2v-4zm-8 2m2 2-2 12 4-1-1-11zm7 1-1 1v5l2-1v-5z" fill="#706FB1"/>
<path transform="translate(895,245)" d="m0 0 14 1 13 4 11 8 7 8 8 16 3 14v7l-5 2h-87l6 16 8 11 8 6 9 3h19l10-4 8-7 5-5h8l2 4-6 9-8 7-7 2-15 1h-19l-16-2-7-4-7-8-8-14-3-10v-21l4-13 5-9 9-10 9-6 9-4zm-5 11-12 5-8 7-6 8-5 13 1 5h77l1-2-5-14-6-9-7-7-8-4-7-2z" fill="#FDFCFD"/>
<path transform="translate(1548,205)" d="m0 0h13l1 1v96l1 2 47-47 10-8 8-3h6l1 2-7 8-33 33 1 4 14 19 13 18 8 10 4 7-2 1-11-1-5-5-13-16-13-18-5-8v-2l-8 6-15 15-1 28h-14z" fill="#FDFCFD"/>
<path transform="translate(1360,245)" d="m0 0 18 2 10 4 9 7 7 7 8 14 3 12v15l-2 10-5 12-8 10-8 7-6 2-16 1h-19l-16-2-8-6-6-7-6-10-4-11-1-6v-13l3-12 7-14 8-9 10-7 10-4zm-1 12-11 3-9 6-6 7-6 12-2 7v16l4 11 5 8 5 6 9 6 8 2h14l11-4 10-8 6-9 3-9 1-16-2-10-6-12-9-9-12-6z" fill="#FDFCFD"/>
<path transform="translate(314,480)" d="m0 0 3 1 1 3-1 1-1 14 4-2h3l2-4 1 3h8v-2l10-2 2-3 15 2 8-3 3-1 1 2h3l2-3v3h5v-2l5 1 2 2h6l4 2 6-1-1-5h-5l-1 2v-2l-4-1 2-4 6 1 5 5 3 6 15 3v3l-21 9-14 4-10 2-29-2-12-2-8-3-4-1v4l5 2 2 4h2v11l4-1 6 1h2l-1 7 1 1 1-7 2-2 5 1 2 4v3l2-1-1-7 1-2 7 1 1 7-5 4-6 1v2h-28l-21-4-16-10-9-4-1-2v-6l5-5 3-7 5 1-1-3 2-3 1 4 7 1-1-14 2-3 2 10v5l5 1 1 1zm57 9m-30 6m9 0m30 0m-19 1m-14 1m4 0m0 2m-6 1m34 1 1 2 2-1zm-26 1m8 1 1 2zm2 1m8 0m-49 3 4 7 1-4-2-3zm-7 4-1 5 2 1 1-6zm10 4 1 4 1-4zm-11 3v10h1v-10zm12 1-2 13h2l1-4v-9zm16 10m-5 1v4h2l-1-4zm4 0-1 2h2zm-1 3-1 2h2z" fill="#E2C7E3"/>
<path transform="translate(1e3 245)" d="m0 0 16 1 10 3 10 7 7 10 3 7 1 5 1 58 4 7-1 4h-13l-2-2-1-9-5 3-5 5-3 2-5 1-16 1h-14l-14-1-6-3-6-8-3-7v-14l5-10 4-5 11-7 12-3h28l13 4v-18l-3-8-5-6-7-4-14-2-16 3-17 8-3-2 1-7 9-6 12-5zm-8 54-9 3-8 6-4 10 1 10 5 8 8 5 4 1h19l11-4 10-8 3-6 1-5v-10l-2-5-4-3-11-2z" fill="#FDFCFD"/>
<path transform="translate(107,295)" d="m0 0 2 4h2l4 13 1 17 3 20 1 24 3 11 5 12 6 10 1 1-2-11v-6l5 5 10 13 2 1v-7l3-6h2l1 5 2 2 1 4v11l2 9 1 8 2 1 1-7h4l-1-4h-3l-3-7-2-20h2l14 22 3 4v2l4 2-1 2-9-1v2l6 2 4 3v7l5 1v-3l5-1 4 5 3 2 2 12 2-6 4-2 2-3 4 2 1 10v11l-3 1-20-11-9-7-10-6-6-6-10-5-14-14v-2h-2l-6-10-7-8-12-19-4-4 6 16 3 6-1 2-6-5-3-1-3-6v-4h-2l-2-8-5-16-1-10v-22l1-14 4-13z" fill="#6B6CAF"/>
<path transform="translate(152,116)" d="m0 0h2l-2 10-7 9-10 13-9 10-3 5-4 13-6 15-2 3-3 11-4 11-3 15-1 8h2l1 5 5-1 12 5 6 3 1 7-2 3h-2l-2 12-3 4h-2v2l-5 2-1 7-3 9-6 16-1 5-1 14v26l4 17 3 7-1 3-4-8-5-14-6-35-3-20v-48l6-27 5-17 5-15 8-19 3-10 5-9h-7l2-7h2l2-4 7-8 2-2 2-5 8-7 8-8z" fill="#E2C5E2"/>
<path transform="translate(1478,245)" d="m0 0h9l12 2 9 4 11 8 6 8-1 4-8 4-4-2-9-9-7-4-9-2h-9l-13 4-9 7-6 10-3 8-1 6v13l4 14 8 11 9 6 5 2 6 1h11l9-2 9-6 7-8 8 1 4 1 1 3-6 9-8 7-7 2-18 1h-17l-12-1-8-4-5-4-9-13-5-12-1-5v-20l5-16 7-11 9-8 12-6z" fill="#FDFCFD"/>
<path transform="translate(1445,442)" d="m0 0h1l3 14 5 8 7 5 9 3h7l12-6 9-10 5-5 10-5h3l-1 13-6 11-9 11-10 7-12 5-11 2h-8l-12-2-16-8-11-11-8-14-3-9v-5l1 2 29-4z" fill="#954AEC"/>
<path transform="translate(1525,387)" d="m0 0h13l20 1 6 4 15 6 14 9 4 5 6 10v3l-6 5-10 2-24 1-12-1 3-5v-11l-3-4-4 1-9 11-4 4 1 5h-6l-2-1-8 1-2-4v-33l3-7z" fill="#A238EB"/>
<path transform="translate(144,310)" d="m0 0h1v6h4l1-5 5-1 3 8 1 16-2 19-1 4v8l4 15 6 10 6 9h-3l-1-3-4-1-2-3 2 6 16 24 5 6 2 1-6-14 1-2 11 14 9 14 3 3-2-9 1-4 5 6 3 6 3 4 3 10 2-6 5 2 4 1 1 13 1 2 2-7 2-5 3 1 3 12v7l-1 2h2l2-12 1-2h2l1 3 2-6 3 2 1 12 1 6h4l3-21h1l2 21 1 4 2 1v2h2v-22l-1-7h-2v-2l4 2 2 3 4 27 2 5h2v-20l3-2 2 8 2 15 5 3v-15l2-1 1 6v11 3l-9-2-5 1-4-5-3-3-33-11-6-3-9-3-7-1-4 1-9-5v-2l-5-1v-2h-4l-1-3 6 2 9 5h2v-11l-1-10-3-1-4 4h-2l-1 6-2 1-2-13-5-5-4-1h-2v3l-5-1-1-7-9-5v-2l6-1h3l-5-5-13-20-2-5-3 1-7-37-5-25-3-18z" fill="#B7A2D0"/>
<path transform="translate(1517,429)" d="m0 0 3 3 8-1 12 4h9l1 6 1 2-1 2 3 1v3l3 3-2 1 3 3-1 1 7 3 3 1 6 3 1 4-3 4h-2v3l-12 7h-3v2l-10 3-8-3-12 24-2 2-4-1z" fill="#D81FC6"/>
<path transform="translate(1265,205)" d="m0 0h11l3 1 1 129 3 3 3 1h17l2 4v3l-2 1h-33l-3-4-2-7z" fill="#FDFCFD"/>
<path transform="translate(293,39)" d="m0 0h13l3 1 24 2 2 3-1 5-2 1v3l4 1 1-4 6-1 8 4 6 8 4 4 8 6v4l-1 2-5-2-2-2-12 1-20-4h-8l-8-7-7-1-6 3-6-2v-2l-6-1v-2l-5-1-5-5-12-2v-3l7-4 5-2z" fill="#F9A2CF"/>
<path transform="translate(826,246)" d="m0 0h6l2 3v8l-8 3-11 4-9 6-6 7-3 8-1 62h-14v-100h11l1 1 1 21 9-11 8-7 9-4z" fill="#FDFCFD"/>
<path transform="translate(444,70)" d="m0 0 5 2 14 8 16 12 7 6 2 6 4 6 3 6-2 5v3 4l4 2 5 12 3 6 1 6-6-2-2-9-1-3h-2l3 8v5h-3l-1-3-3-1-3-10-1-4-2-2v-3l-2-2-7-1-4-4h-5l-1-5-4-2v-2l-10-2-6-6-4-1-8-7h-7l-3-4v-3l4-2 9-1 6 3 5-1 1-3 4 1 4 3 6 2v2l10 4 1 2h4l-2-5-5-4-8-4-6-4-9-3-3 3-2-1-1-5 3-1-2-6z" fill="#FAA5D0"/>
<path transform="translate(523,236)" d="m0 0 6 2 7-1 1 2v8l-6 13-6 16-4 10 3 2 2 10 2-1 5-1 4 4 3 9 5 18 2 9-4 4-3-1-1-10-3 7-4 1h-3l-1-2h-1l-1-6 1-10 1-2h-2l-1 2-3-7-6-3-15-15-9-10-3-5-2-1v-2h-2v-2l5 2 2 4 5-1 1 4h2l1-4 7 1v2l4-1-1-3 3 1 2-5 1-6-2-1 2-8v-9l5-11zm-28 44m6 2 2 2v-2zm1 3 3 3 2-1-2-2zm5 3m1 1m2 1m7 6m0 4m1 1m1 2 1 3v-3zm13 25 1 3z" fill="#F8A5D1"/>
<path transform="translate(1614,442)" d="m0 0 6 2v-2h5l1 1v10l-4 11-7 11-8 8-10 6-10 4-12 2-14-1-10-3-7-4 3-2 21-7 10-5 13-11 13-14 6-3h2v-2z" fill="#A238EB"/>
<path transform="translate(135,159)" d="m0 0 1 2-1 7 4 8 3 4-1 14-4 7h-2v2l-12 3-2 5-1 4 10-5 11-7 16-5h3l-2 16h-2l-1-12-1 2h-2l-1 8-5 5h-2v2l-9 9h-2l-2 4-3 3-2 4-9 1-8-3-1-1v-8l4-15 6-18 5-16 8-15z" fill="#F9A3D0"/>
<path transform="translate(532,387)" d="m0 0h1v11l-2 8-5 5-6 8-16 14-15 14-8 7-6 8-8 8-1-3 1-35-2 1v-5h-4v4l-4-1v-3l-5-2-2 1-6-7 1-2 7 5 4 1 4 4-1-6 3-3 4 3h3l1 4 5 1 2-4 6 3 10-3 9-1 6-2 1-3 5-5 5-3 3-8 5-10 4-2z" fill="#B6A1D0"/>
<path transform="translate(155,201)" d="m0 0h1l1 11-1 2h2l-1 8-6 21-5 19-3 4-10 4-9 5-11 8-4 4 2-6 5-2v-2h2l2-4 2-10 4-5v-7l-5-1-2-2-7-2 3-4v-3h8l3-1 3-5 4-5 7-6 2-3h2v-2l6-5 2-8h2z" fill="#FECFD8"/>
<path transform="translate(259,56)" d="m0 0h6l-3 9-4 1-2 5-3 2-2-2-5 2-9 7-2 3h-2l-1 4-9 7-7 5-7 3-5-1-1-2-6-3-5-6 7-7h3l-2-4v-3l6-2 4 3 4-1 2-2 1-5 7-4 6-4 9-2 9-1 1-1z" fill="#F9A5D0"/>
<path transform="translate(1419,410)" d="m0 0h11l8 2 10 2 6 4-1 5-5 12-2 7-7 3-17 2-3 1h-9l-2-3v-10l4-15 5-9z" fill="#D81FC6"/>
<path transform="translate(448,499)" d="m0 0h9l2 1-2 4-9 4-5 3-5 5-9 8h-3l-1 4-16 6-6 2h-4v2l2 1-5 3-13 1-5 2-2 1-9-3 1-5 6-7 9-5h6l1 2 5-6 12-6 7-4 10-3h7l2 1 8-4 5-6z" fill="#E0C4E2"/>
<path transform="translate(1445,442)" d="m0 0h1l3 14 5 8 2 3-3 5h-2v2l-5 2h-3l-2 5-6 5-5-2-10-10-8-14-3-9v-5l1 2 29-4z" fill="#A238EB"/>
<path transform="translate(1668,418)" d="m0 0h7l9 3 7 6 3 8-1 4h-6l-10-8-8-1-5 3-3 4-1 8 4 8 6 4 7-1 10-8 5-1 2 1v7l-7 8-7 4-4 1h-9l-10-5-5-6-4-9v-9l3-9 6-7 7-4z" fill="#FDFCFD"/>
<path transform="translate(1796,420)" d="m0 0 4 1 3 5v2l6 1 4 3-1 5-6 2h-2v14l5 3 4 4 1 5-4 2-9-1-5-3-3-5-2-19-3-1-8 3-3 2-1 3-1 19-2 2h-7l-2-2v-33l4-2 6 5 5-3 12-3 3-8z" fill="#FDFCFD"/>
<path transform="translate(1079,430)" d="m0 0 8 1 5 5 4 1 8-6 2-1h7l6 5 3 6 1 16-1 16h-5l-2-3v-24l-3-9-6-1-6 4-3 4-1 4-1 23-4 2-2-2-1-29-5-6-7 1-6 7-1 5-1 23h-6l-1-2v-38h4l4 4 7-5z" fill="#FDFCFD"/>
<path transform="translate(550,220)" d="m0 0 3 3 3 16 4 23 1 9v13l-1 2-5-2v-2l-4 1-4-6-3-2-8-7 1-5 3-14 5-17 3-10z" fill="#F8A6D1"/>
<path transform="translate(1835,429)" d="m0 0 10 2 6 4 4 8v12l-5 8-8 5h-12l-7-4-5-8-1-3v-9l4-8 6-5zm-3 10-4 5v9l5 5h7l4-4v-11l-4-4z" fill="#FDFCFD"/>
<path transform="translate(310,512)" d="m0 0h4l1 4 7-1 3 11v5l1 1 1-9 7 1 2 4 2-2 11 1-1 7 1 1 1-7 2-2 5 1 2 4v3l2-1-1-7 1-2 7 1 1 7-5 4-6 1v2h-28l-21-4-5-3-4-6-1-1v-5l3-2h3v-4zm4 6v10h1v-10zm28 11m-5 1v4h2l-1-4zm4 0-1 2h2zm-1 3-1 2h2z" fill="#7C75B5"/>
<path transform="translate(138,276)" d="m0 0 3 1v3l5 1-1 5v33l3 18 5 25 7 37v7h-1l-3-14-4-15-4-17-3-17-3-5v-2l-3-1-4-11-5-16-1-8v-9l1-7 4-6h4z" fill="#E2C6E3"/>
<path transform="translate(112,380)" d="m0 0 4 2 11 18 7 9 4 5 3 5v2h2l7 8 7 7 11 6 8 7 14 9 5 5-6-2-4-2-1 7-2 1-7-1h-4l-2-2-8-4-2-4-2-2-3-4-1-5-5-10-3-8-8-9-6-7-7-5 1 5h2l2 6-5-2-8-11-3-4 1-2 6 5-8-20z" fill="#E0C4E2"/>
<path transform="translate(1738,429)" d="m0 0 8 1 6 4 4 6 1 10-2 9-6 7-4 2h-11l-6-4-5-8-1-4v-9l5-9 6-4zm-2 9-3 5 1 6 11-3 2-2-3-5-1-1zm9 13-9 1-2 1 1 5 1 1h9l5-5v-3z" fill="#FDFCFD"/>
<path transform="translate(1598,466)" d="m0 0 4 2v2l12 2v4l-7 7-10 6-10 4-12 2-14-1-10-3-3-2v-3l10-1v2l7-2 7-6 12-5z" fill="#954AEC"/>
<path transform="translate(1132,431)" d="m0 0h3l2 5 9-5h12l6 4 5 6 2 5v11l-3 8-7 7-6 2-9-1-6-4-3-3 1 21-2 2-4-1-1-1v-54zm14 5-7 6-2 6v10l4 6 7 4h7l6-4 4-8v-9l-5-8-4-3z" fill="#FDFCFD"/>
<path transform="translate(266,98)" d="m0 0h4l1 5-2 3-2-1-3 12-1 2 1 4-2 1-2-8 1-3-2 1-2 9-3 13-6 21h-1v-5l-2-1v-3h-2l1 6-1 2 2 1-2 5-2-2v-13l-1-2-3 1 1-5 2-3v-3l-3 2-7-4v-5l4-4 8-6h4l2-5 4-3 6-2 2-6 2-3zm2 5m-15 23 1 2z" fill="#F9A3CF"/>
<path transform="translate(724,416)" d="m0 0h11l10 2 6 4 4 10-1 9-4 6-6 5-12 1-11-1v21l-5-1-1-9v-44l2-2zm3 5-5 1-1 2v21l5 2h15l6-5 1-2v-9l-3-6-6-3z" fill="#FDFCFD"/>
<path transform="translate(528,407)" d="m0 0h4l-1 9-11 16-9 10-11 13-8 2-12 7-5 1-11 11 1-6 8-7 6-7 7-8 10-9 12-11 9-7 5-5 3-5z" fill="#E2C6E3"/>
<path transform="translate(1567,385)" d="m0 0h10l16 4 11 6 10 9 4 5-1 4-2-1v-2l-7 2h-6v2l-4-1-5-5-14-9-19-8-3-4z" fill="#F70FB7"/>
<path transform="translate(135,159)" d="m0 0 1 2-1 7 4 8 3 4-1 14-4 7h-2v2l-12 3-2 5v5h-6l-1-8 9-29 8-15z" fill="#F9A3D0"/>
<path transform="translate(983,416)" d="m0 0h8l9 3 5 4 2 4v5h-3l-10-8-3-1h-9l-7 4-6 10-1 4v8l4 9 4 5 8 4h7l6-3 9-7 2 1v5l-9 8-8 3h-8l-10-5-7-8-4-8-1-4v-9l4-10 7-8 5-4z" fill="#FDFCFD"/>
<path transform="translate(267,458)" d="m0 0 4 2 2 3 4 27 2 5h2v-20l3-2 2 8 2 15 5 3v-15l2-1 1 6v11 3l-9-2-5 1-4-5-3-3-33-11-2-1v-2h3v-9l2-6h2l1 3 2-6 3 2 1 12 1 6h4l3-21h1l2 21 1 4 2 1v2h2v-22l-1-7h-2z" fill="#C6AFD7"/>
<path transform="translate(665,416)" d="m0 0 4 2 8 18 11 28 3 9-6-1-3-5-5-11h-23l-8 16-4 2v-6l16-39 6-12zm1 10-8 16-3 9h21l-3-10-5-14z" fill="#FDFCFD"/>
<path transform="translate(844,430)" d="m0 0 10 1 8 5 5 9v8l-1 1h-33l4 9 5 4h10l11-7h2l-1 5-8 7-5 2h-9l-7-4-6-7-3-8 1-9 5-8 7-6zm-1 5-8 7-2 7 1 1h26l1-5-4-6-6-4z" fill="#FDFCFD"/>
<path transform="translate(1335,431)" d="m0 0h13l8 5 5 8 1 3v8l-3 8-7 8-7 3h-9l-7-4-6-7-3-7v-8l4-8 4-5zm2 5-6 4-4 7v10l4 6 5 4 2 1h7l6-4 4-6 1-3v-7l-4-7-5-4-2-1z" fill="#FDFCFD"/>
<path transform="translate(535,205)" d="m0 0 3 1-1 4 1 4h1l1 5 1 3-2 8h3l-3 9-2 4-1-6-9 2-3-2-6 13v9l-2 8 1 4v6h-2l-1 3-1-2-1 3-3-1-4-4-4-1 1-2h5 3l1 3h2v-3l-5-2-5-6 1-2 7 3-3-5v-2l-3 1v-11l-3-4 1-3 1 2 3-2-1-4 5 1 1 2h-2v2l3-1-1 4 3-1 2 1-1-6h2l1 2 4-9 4-4h3l1-7 1-1zm-27 34 1 2zm-1 5m-2 1v3l3-1-1-2zm4 0m-1 2 1 3 2-2z" fill="#E9C8E0"/>
<path transform="translate(1031,430)" d="m0 0 9 1 8 5 5 7 1 3v11l-5 10-6 5-6 2h-9l-6-4-7-8-2-5v-9l5-10 7-6zm1 5-7 3-5 7-1 3v7l4 8 5 4 6 2 8-4 5-6 1-3v-9l-6-8-4-3z" fill="#FDFCFD"/>
<path transform="translate(769,431)" d="m0 0h12l6 3 5 7 1 4v27h-4l-3-4-8 5-3 1h-8l-6-4-4-6v-7l5-6 10-4 10 1 5 1-4-10-5-3-10 1-4 2h-3l1-4 4-3zm4 20-9 4-1 2v7l4 4 8 1 10-6 2-3v-7z" fill="#FDFCFD"/>
<path transform="translate(1193,430)" d="m0 0 10 2 5 6 2 6 1 29-5-2-4-1-8 4h-9l-6-4-3-6 1-9 4-5 6-2h10l6 2-1-8-3-5-2-1h-8l-9 5-1-4 4-4 4-2zm-5 22-6 3v9l6 5 9-1 5-3 1-2v-9l-2-2z" fill="#FDFCFD"/>
<path transform="translate(1241,430)" d="m0 0 7 1 5 5 2 5 1 7v24l-5 1-2-1-1-27-3-8-5-1-8 4-3 5-1 8-1 19-4 1-2-2v-40l4 1 2 3 5-1 5-3z" fill="#FDFCFD"/>
<path transform="translate(144,310)" d="m0 0h1v6h4l1-5 5-1 3 8 1 16-2 19-1 4v8l4 15 6 10 6 9h-3l-1-3-4-1-2-3-3 3-4-16-5-26-5-27-1-7z" fill="#C980C6"/>
<path transform="translate(895,430)" d="m0 0 8 2 4 5 2 7v28l-5 1-1-1-1-22-2-10-4-4-6 1-7 6-2 7v21l-1 1h-6l-1-9v-31l2-1 4 4v2l11-6z" fill="#FDFCFD"/>
<path transform="translate(1879,430)" d="m0 0 8 1 6 4 4 7 1 3v8l-4 8-8 7h-9l-9-5 1 14-4 1-1-1-1-19 1-21 1-3zm-2 5-5 3-3 5v13l4 5 4 2h7l5-4 3-5v-10l-6-8-2-1z" fill="#FDFCFD"/>
<path transform="translate(301,42)" d="m0 0h8l3 2 3-2h9l8 3-1 5-1 6 3 3h-6l-14-2-6 1-5-2-7-2v-2l-7-1-4-2v-4l-8 1-1 2-1-3 13-2 2 1 11-1z" fill="#C880C5"/>
<path transform="translate(194,80)" d="m0 0h3v2l-4 2-4 6-4 5v2l6 1 6 7v4l-15 8-6 5-7 1-2-8-2-2 3-6 8-9 6-8 3-3 2-3 6-3z" fill="#F9A4D0"/>
<path transform="translate(395,522)" d="m0 0m-1 1h1v5l5-2 19 1 1 2-11 5-6 2h-4v2l2 1-5 3-13 1-5 2-2 1-9-3 1-5 6-7 9-5h6l1 2z" fill="#E2C6E2"/>
<path transform="translate(1993,149)" d="m0 0h24l8 4 5 7 2 7v16l-3 9-5 6-8 5-9 2h-7l-9-3-9-8-6-10-1-3v-12l6-12 7-6zm4 2-8 3-6 7-4 8v12l5 10 8 7 7 3h12l8-4 7-8 3-8v-15l-5-8-7-6-3-1z" fill="#FDFCFD"/>
<path transform="translate(1261,430)" d="m0 0 4 1 5 8 10 25 3-4 8-21 5-8 4-1-1 6-13 31-7 16-6 7-5 1v-4l7-10 1-7-7-15-8-21z" fill="#FDFCFD"/>
<path transform="translate(279,45)" d="m0 0h5v4l4 1 7 2 1 2 7 2 8 1 4-1 5 1 13 1 7-6 11 2 6 8 1 5h-2l-1 3-12-1-4-1-2-4-9-1-13-3-3 1-6-1-13-3-4-3h-7v-2l-15-2 1-2 4-1 4 1v-2z" fill="#E88ECA"/>
<path transform="translate(1513,446)" d="m0 0h3l-1 13-6 11-9 11-1-3h2l2-4 4-6-4 2-2 4-3 4h-3v2l-6-1-2-1-1-9 5-5 10-12z" fill="#A33DEA"/>
<path transform="translate(118,176)" d="m0 0h2v7h2l-3 12-6 18-4 15v8l7 4-2 4-3 1-4-1-4 1-1-1v-5h-2v-8l3-15 6-17 2-7 4-8z" fill="#EAE3F2"/>
<path transform="translate(1917,430)" d="m0 0h7l8 3 7 8 1 3v9l-4 8-7 6-3 1h-10l-6-4-5-6-1-3v-12l6-9zm1 5-6 4-3 5v8l3 7 4 3 9 1 8-7 1-2v-10l-4-6-4-3z" fill="#FDFCFD"/>
<path transform="translate(519,159)" d="m0 0 6 2 10 9v2h2l4 5 2 1 2 8h2l2 11-1 10-3 2 1 10-2-4-4-9v-2l3-1-5-5-3-9-5-6-4-9-3-1-4-13z" fill="#E3C6E2"/>
<path transform="translate(1611,410)" d="m0 0h4v2l4-1 5 10 2 7v15l-6-1v-3l-5-1-4-7v-2l-4-2-6-7-4-6 1-2 4 2v-2z" fill="#D81EC6"/>
<path transform="translate(152,116)" d="m0 0h2l-2 10-7 9-10 13-10 11-4 3h-8l1-6h2l2-4 7-8 2-2 2-5 8-7 8-8z" fill="#CC7FC5"/>
<path transform="translate(234,289)" d="m0 0h1v28l4 24 4 13 8 18 11 16 12 13 9 9 7 5 3 5v2l-4-2-6-5v-2h-2v-2l-4-2-12-11-7-8-10-14-8-17-5-14-3-18-1-12v-11l2-13z" fill="#BD3CCA"/>
<path transform="translate(124,274)" d="m0 0 3 1-9 7v3l2 2 1 10 2 6 1 7v18l-1 12-2-1-6-25-4-13v-2h-2l-2-4 1-6 6-8z" fill="#CB7DC5"/>
<path transform="translate(1379,415)" d="m0 0h10l3 2v3l-9 1-4 2-2 4-1 8 11 1 2 2-1 2-11 1v31l-3 1-3-1-1-23-2-14 4-14z" fill="#FDFCFD"/>
<path transform="translate(553,238)" d="m0 0 2 2 4 27v10l-8 1-8-10-2-8 2-10 4-4 3-6h3z" fill="#E88ECA"/>
<path transform="translate(1705,427)" d="m0 0 9 2 2 6v29l-2 2h-6l-4-3-1-20-3-8 1-5z" fill="#FDFCFD"/>
<path transform="translate(559,295)" d="m0 0 6 1 1 4h2l1 2v17l-2 10-3 1-1 2-6-2-1-3-1-14-3-9 1-5z" fill="#B7A2D0"/>
<path transform="translate(922,417)" d="m0 0 4 2v12h8l2 1v3l-10 1 1 25 1 5 10 2-1 4-1 1h-11l-4-4-1-3-1-27-2-5 1-4 1-1 1-10z" fill="#FDFCFD"/>
<path transform="translate(361,52)" d="m0 0 16 1 10 4 1 3h2l6 7 1 3v7l-1 2-6 2-5 1-3-3v-2h-2l-1-5 3-1 6 1-1-3-4-3-8-2-5-3-4-2-5-3z" fill="#FAA3D0"/>
<path transform="translate(451,92)" d="m0 0 14 5 8 2 2 4 8 4 5 6-5 1-2 5-3 1-4-8-8-1-5-4v-2l-4 1-4-2-7-9-2-2z" fill="#E790CA"/>
<path transform="translate(444,70)" d="m0 0 5 2 14 8 16 12 7 6 2 6 1 4h-6l-9-5 4-2-2-5-5-4-8-4-6-4-9-3-3 3-2-1-1-5 3-1-2-6z" fill="#FAA9D1"/>
<path transform="translate(818,430)" d="m0 0h5l-1 4-8 7-3 3-1 5-1 23-4 1-2-1-1-6v-35l4 1 5 4z" fill="#FDFCFD"/>
<path transform="translate(167,169)" d="m0 0h1l-1 10-7 14-1 5-18 6-18 11h-3l1-7 2-3 18-4 5-5 3-5 4-4h2v-2l5-3h2l3-10z" fill="#FDFCFD"/>
<path transform="translate(155,201)" d="m0 0h1l1 11-2 1-2-1-1 4-2 2-1 4h-2l-1 5-3 3-2 6-4 4-3 10-2-2-1-12-3 4-2 6-6-3-1-3 7-2 3-5 4-5 7-6 2-3h2v-2l6-5 2-8h2z" fill="#ECC9DF"/>
<path transform="translate(235,457)" d="m0 0 3 1 3 12v7l-1 2h2l1-3v4l-6 1-20-8 1-9 3-1 1-3 5 1 2 6 2 2 2-7z" fill="#C0AAD5"/>
<path transform="translate(265,74)" d="m0 0 3 3-1 2h-2l-2 4-1 1-9 1-1 4-18 6h-3v2l-11 6-3 2h-3l-1-4 5-5 11-6 10-4 16-4 4-3h2l1-4z" fill="#FDFCFD"/>
<path transform="translate(139,266)" d="m0 0 2 1-3 3 4 3-1 4-7 2-3 6-1 6-1 9-4-3v-2h-2v-3h-3l-2-6-2-2 5-5 4-5 4-3zm-4 5-2 3 4-2zm-4 3-2 3 4-2z" fill="#F8A2CF"/>
<path transform="translate(262,461)" d="m0 0h1l1 12v11l-4 4-9-2-11-4v-2h3v-9l2-6h2l1 3 2-6 3 2 1 12 1 6h4z" fill="#BCA8D3"/>
<path transform="translate(1945,418)" d="m0 0h9l1 4v44h-5l-1-1v-16l-1-19-3-9z" fill="#FDFCFD"/>
<path transform="translate(540,272)" d="m0 0 5 2 6 7 4 2h-2l2 12-2 3h-6l-5-8-5-4h-7l-1-5 5-3 2-3 4 1 2 2 3 10-1-8-4-6z" fill="#E9C2DF"/>
<path transform="translate(535,205)" d="m0 0 3 1-1 4 1 4h1l1 5 1 3-2 8h3l-3 9-2 4-1-6-9 2-3-2-2 2v-5l5-5h3l1-7 1-1z" fill="#E2C6E2"/>
<path transform="translate(112,380)" d="m0 0 4 2 11 18 7 9 4 5 3 5v2h2l4 6-4-2-12-14-7-5 1 5h2l2 6-5-2-8-11-3-4 1-2 6 5-8-20z" fill="#D5BBDD"/>
<path transform="translate(310,512)" d="m0 0h4l2 5v8l-1 3 2 6 2 2-10-1-5-3-4-6-1-1v-5l3-2h3v-4z" fill="#B7A1D0"/>
<path transform="translate(566,229)" d="m0 0 4 4 5 9 2 4 2 14v14l-1 7-3-4-4-18-2-3v-6l-1-1-2-13z" fill="#E6C7E1"/>
<path transform="translate(98,258)" d="m0 0h1v13l-4 32-3 6-3-1v-17l3-16z" fill="#B6A1D0"/>
<path transform="translate(293,39)" d="m0 0h13l3 1 24 2 2 3-1 5-2 1v3l4 1 1-4 6-1 7 3-3 1-7-1-5 5-5-1-1-5 3-7-8-2h-9l-4 2v-2h-10l-6 2h-6l-2-1-10 1-5 3-3-2 9-4z" fill="#E8BCDD"/>
<path transform="translate(153,212)" d="m0 0 5 2-1 8-6 21-5 19-3 4-5 2-3-1 1-1v-5l-2 1 1-5 3-2 2 4 4-1 4-12 3-17v-3h-2l-1-4 2-6h2z" fill="#FCFBFC"/>
<path transform="translate(98,321)" d="m0 0h1v37l4 17 3 7-1 3-4-8-5-14-6-35v-5l2 4 3-2 1 3z" fill="#DB89C8"/>
<path transform="translate(2e3 164)" d="m0 0 5 1 5 13h4l1-11 1-3 4 2 1 9-2 7-5 3h-7l-4-6-3-14z" fill="#FDFCFD"/>
<path transform="translate(341,517)" d="m0 0h7l20 3 3 2-2 6-1-3-7-1-1 4-8-1-7 1 1-4-1 1-1 2h-7l1-7zm12 5 1 3v-2h2v2h2l-1-3z" fill="#E2C6E3"/>
<path transform="translate(1965,417)" d="m0 0 5 1 1 46-1 2h-4l-1-34-2-14z" fill="#FDFCFD"/>
<path transform="translate(220,451)" d="m0 0 5 2 4 1v15l-2-4v-4l-4 1-1-1-3 3-1 9 5 1-3 2-4 1-9-5v-2l-5-1v-2h-4l-1-3 6 2 9 5h2v-13l2-5 2 4z" fill="#BEA4D2"/>
<path transform="translate(1542,408)" d="m0 0 5 1 2 3-5 5-10 11-5 2-2-5 6-11 5-5z" fill="#D922C6"/>
<path transform="translate(267,458)" d="m0 0 4 2 2 3 4 27 2 3-1 4-3-3-16-5 4-5 2-2 1 4 2 1v2h2v-22l-1-7h-2z" fill="#CAB3D9"/>
<path transform="translate(361,524)" d="m0 0 7 1 1 7-5 4-6 1v2h-9l1-11 2-2 5 1 2 4v3l2-1-1-7z" fill="#736FB1"/>
<path transform="translate(496,465)" d="m0 0 3 2-7 6-10 6-14 7-4 3 2-6 8-7 10-6z" fill="#E2C5E2"/>
<path transform="translate(426,432)" d="m0 0 5 2 5 1v2l4-1h1l1-4 2 1 1 3 3 3v3h-3v-2l-3 1-4-1-5-1 1 5-2-1v-2l-5-1 1 5h-3-8l1-5 2-2 1-3 4 1z" fill="#B5A0CF"/>
<path transform="translate(267,47)" d="m0 0 4 1-3 1 14 3v2l7-1 4 3 15 4 1 2-7 3-2 1-6-2v-2l-6-1v-2l-5-1-5-5-12-2v-3z" fill="#F8A3D0"/>
<path transform="translate(367,448)" d="m0 0h1l2 9h2l2 3 2-2 1 6-2 1v-2l-2 1-2 8 1 2v10l-1 4h-3l-2-23-1-11h2z" fill="#817BB8"/>
<path transform="translate(250,124)" d="m0 0h2l1 17-3 9-2 7h-1v-5l-2-1 1-11h-2l-1-6 3-3z" fill="#E88ECA"/>
<path transform="translate(408,73)" d="m0 0h6l5 5 1 8-2 2-4-1-1-2-9-1-1-4 3-6z" fill="#FAA4D0"/>
<path transform="translate(319,515)" d="m0 0h3l3 11-1 8-1 2-6-1-2-6 1-12z" fill="#6B6CAF"/>
<path transform="translate(256,386)" d="m0 0 5 1 14 15 8 8 7 5 3 5v2l-4-2-6-5v-2h-2v-2l-4-2-12-11-7-8z" fill="#7170B1"/>
<path transform="translate(127,172)" d="m0 0 1 3-2 21-4 6-3 2h-3l4-16 4-11z" fill="#E48DCA"/>
<path transform="translate(169,170)" d="m0 0 2 2v10l-1 7h-2l-1 13h-2l-1-8-3 4h-2l1-8 6-11z" fill="#FEC9D7"/>
<path transform="translate(355,448)" d="m0 0 3 3 3 12 2 21-4 2-1-2-2-22-3-3z" fill="#867FBB"/>
<path transform="translate(147,218)" d="m0 0 1 4-2 5-3 3-2 6-4 4-3 10-2-2-1-12 2-4h2l2-4 6-4z" fill="#E2C6E3"/>
<path transform="translate(152,116)" d="m0 0h2l-2 10-7 9-4 4h-3v-3l5-5 2-4-5 3-11 11-1-3 10-9 7-7z" fill="#F4A8D3"/>
<path transform="translate(400,526)" d="m0 0 19 1 1 2-11 5-11 3-1-9z" fill="#6B6CAF"/>
<path transform="translate(321,508)" d="m0 0 4 2 1 3 4 2 6 6v7l-4-4-5-1-1 3h-2l-2-11-6 2 1-7zm4 7 1 4 1-4z" fill="#BBA5D2"/>
<path transform="translate(234,289)" d="m0 0h1v28l3 20-1 4v-2l-3 1-3-21v-15l2-13z" fill="#CA7CC5"/>
<path transform="translate(387,53)" d="m0 0h13l13 5-2 4h-8l-8-3-7-3z" fill="#F9A9D1"/>
<path transform="translate(1565,396)" d="m0 0h10l3 3-3 7-11-1-4-3 1-3z" fill="#9448EC"/>
<path transform="translate(105,211)" d="m0 0 1 4-2 15v12l2-5 2 2 5-1 3 2-2 4-3 1-4-1-4 1-1-1v-5h-2v-8l3-15z" fill="#FDFCFD"/>
<path transform="translate(506,238)" d="m0 0 5 1 1 2h-2v2l3-1-1 4 3-1 2 1-2 4-5 6-1 5-1-2-3 1v-11l-3-4 1-3 1 2 3-2zm2 1 1 2zm-1 5m-2 1v3l3-1-1-2zm4 0m-1 2 1 3 2-2z" fill="#FFCFD8"/>
<path transform="translate(536,275)" d="m0 0 4 1 2 2 3 10 1 3-2 2-7-7h-7l-1-5 5-3z" fill="#E2C6E3"/>
<path transform="translate(396,529)" d="m0 0h1l1 9-11 2-10 2-5-1 2-5 7-4h1l1 5 3 1 8-6h2z" fill="#B8A1D0"/>
<path transform="translate(301,42)" d="m0 0h8l5 2-1 2-4-1-7-2v6h-2l-1 2-1-2-4 1-4-2-1 2-5-1v-4l-8 1-1 2-1-3 13-2 2 1 11-1z" fill="#B69FCF"/>
<path transform="translate(361,52)" d="m0 0 16 1 7 3-2 2h-5l-4 1 4 5-10-4-6-4z" fill="#FAADD2"/>
<path transform="translate(293,39)" d="m0 0h13l-2 3-9 3h-6l-2-1-10 1-5 3-3-2 9-4z" fill="#E6C6E0"/>
<path transform="translate(523,415)" d="m0 0 1 3-7 11-10 11h-5l6-7 7-10z" fill="#FDFCFD"/>
<path transform="translate(340,52)" d="m0 0 11 2 6 8-1 2-6-5-6 1h-11v-2z" fill="#F7A6D1"/>
<path transform="translate(502,155)" d="m0 0 5 1 5 5 7 16 1 7-4-4-2-6-4-6v-3h-2l-6-7z" fill="#F9AAD1"/>
<path transform="translate(1706,416)" d="m0 0 7 1 3 3-1 5-3 1h-8l-2-3 1-6z" fill="#FDFCFD"/>
<path transform="translate(534,265)" d="m0 0 1 4v2h5l6 12v7l-3-4-3-9-4-1-4 5h-3v3h-2l1-5 4-8z" fill="#FECED8"/>
<path transform="translate(110,248)" d="m0 0 7 2 3 9-1 5-5-2h-3l-1-3z" fill="#FAA3D0"/>
<path transform="translate(221,460)" d="m0 0 6 1 1 8-2 4-8 1-1-4 2-7h2z" fill="#6B6CAF"/>
<path transform="translate(179,93)" d="m0 0 4 1 1 6-5 2-7 8-4 3h-2l1-5 9-10z" fill="#C184C6"/>
<path transform="translate(410,444)" d="m0 0h3l1 2 2-1 3 1-1 4-6-1-1 5h-3l-4 6-3-3-1-3-2 1v-5l3 1 1 2 2-2h1l1-3 5 2z" fill="#B4A0CF"/>
<path transform="translate(536,207)" d="m0 0 4 1 5 7 1 7h-2l-1 6-1 2h-3v-6l1-2v-7l-4-1z" fill="#F9A4D0"/>
<path transform="translate(1527,431)" d="m0 0 11 3-1 4-3 1h-11l-2-5-1-2z" fill="#BB28CD"/>
<path transform="translate(242,136)" d="m0 0h2v4l3-1-2 9h-2l1 6-1 2 2 1-2 5-2-2v-13l-1-2-3 1 1-5z" fill="#F8A1CF"/>
<path transform="translate(308,516)" d="m0 0 5 1 1 1v7l-2 5-7-3 2-10z" fill="#6B6CAF"/>
<path transform="translate(478,97)" d="m0 0 5 2v-2l3 1 2 6 1 4h-6l-9-5 4-2z" fill="#E2C6E3"/>
<path transform="translate(157,437)" d="m0 0 5 2 6 3 8 7 8 5-4 1-9-6-3-3-4-2v2l-3 1-4-4 1-4z" fill="#B6A1D0"/>
<path transform="translate(421,529)" d="m0 0m-5 1h5l-1 3-5 3-9 3-4 2-4-1 2-1-1-3 15-5z" fill="#F5E8F3"/>
<path transform="translate(384,485)" d="m0 0 7 1 5 2h4v-2h5l2 6-9 1-2-2h-6l-4-3-3-1v2h-5l4-1v-2z" fill="#B6A1D0"/>
<path transform="translate(90,323)" d="m0 0 2 4 4 9 1 7v13l-2 2-5-30z" fill="#F6A5D1"/>
<path transform="translate(160,414)" d="m0 0 3 4 2 7h3l1 4-4 2-1 5-3-1-1-9z" fill="#C4B0D8"/>
<path transform="translate(519,285)" d="m0 0 5 3 2 10 2-1 5-1-3 1v6l-3 5-2-2-3-12v-2l-4-1z" fill="#F3CBDC"/>
<path transform="translate(1518,486)" d="m0 0 2 2 2 8 4 1 2-2-1 5h-2l-2 5-5 1z" fill="#F90CB6"/>
<path transform="translate(359,521)" d="m0 0 9 1 1 1v5l-1-3-7-1-1 4-8-1-7 1 2-5 6-1 3 1v2h2z" fill="#B29ECE"/>
<path transform="translate(427,418)" d="m0 0 3 1v2l5 1 3 3h2v2l6 1 4 4h-2v2h-2v-3l-7-1-3 1-4-6-5-5z" fill="#B6A1D0"/>
<path transform="translate(1990,164)" d="m0 0h6l-2 9 1 12-5-5-1-14z" fill="#FDFCFD"/>
<path transform="translate(296,421)" d="m0 0 5 2 3 4 6 3 5 6-1 8h-1l-2-7-6-7-6-2-3-4z" fill="#7D78B7"/>
<path transform="translate(214,81)" d="m0 0 2 1v2h2l-1 4-4 6h-4l-1-9z" fill="#E88FCA"/>
<path transform="translate(234,466)" d="m0 0 4 1 1 10-1 3-6-2-2-3z" fill="#6B6CAF"/>
<path transform="translate(195,106)" d="m0 0 2 3-15 8-6 5-7 1-1-4-1-5 3 1v6l7-3 11-9h5v-2z" fill="#F2CADC"/>
<path transform="translate(470,86)" d="m0 0 7 4 6 6v3l-6-2-6-5-5-2z" fill="#F4ABD4"/>
<path transform="translate(113,398)" d="m0 0 8 5 3 4 1 4h2l2 6-5-2-8-11-3-4z" fill="#D494CD"/>
<path transform="translate(344,447)" d="m0 0h2l3 8 1 14 1 5-3-1-4-20z" fill="#847EBA"/>
<path transform="translate(587,318)" d="m0 0 3 1 1 14-3 3-2 6h-1l1-12z" fill="#E4CAE5"/>
<path transform="translate(155,201)" d="m0 0h1l1 11-2 1-2-1-1 4-2 2-2 4-1-5 3-5 2-8h2z" fill="#F9CDDA"/>
<path transform="translate(194,80)" d="m0 0h3v2l-4 2-4 6-4 5-5-2 5-6 2-3 6-3z" fill="#F4B3D6"/>
<path transform="translate(533,175)" d="m0 0 1 2h2l3 6 3 1 3 8-4 1-6-10-2-4z" fill="#FAA3D0"/>
<path transform="translate(126,129)" d="m0 0 2 1-8 10-9 11-2 1 1-4 7-10 5-6z" fill="#FED3DB"/>
<path transform="translate(262,461)" d="m0 0h1l1 12v11l-3 3-1-1v-11z" fill="#B39FCE"/>
<path transform="translate(137,172)" d="m0 0 1 2 4 2 3 4v9l-4 7-1-2v-7l1-7-4-5z" fill="#E2C6E3"/>
<path transform="translate(449,87)" d="m0 0 4 1 4 3 6 2v2l5 2 1 2-18-6h-3z" fill="#E2C6E3"/>
<path transform="translate(444,70)" d="m0 0 5 2 6 3-3 1-5-1 3 4-1 2-4 3-2-1-1-5 3-1-2-6z" fill="#FBD0DB"/>
<path transform="translate(334,116)" d="m0 0 3 1 1 9h-2v2h-3v-2h-2l1-9z" fill="#FBACD1"/>
<path transform="translate(302,45)" d="m0 0h5l1 4-1 2 4 1-1 3-7-1-2-2z" fill="#6B6CAF"/>
<path transform="translate(327,514)" d="m0 0 3 1 6 6v7l-4-4-5-1-1-7z" fill="#B8A2D0"/>
<path transform="translate(117,205)" d="m0 0h6l-2 6v5h-6l1-10z" fill="#FECED8"/>
<path transform="translate(460,162)" d="m0 0 5 2 5 10v3l-4-2-7-10z" fill="#FFCFD8"/>
<path transform="translate(377,57)" d="m0 0 9 3 3 3-1 2-5-1v-1h-7l-4-5z" fill="#E88ECA"/>
<path transform="translate(1517,481)" d="m0 0h1v25l5-1 2-5 2 1-5 8-4 1-1-1z" fill="#DF4AC7"/>
<path transform="translate(566,229)" d="m0 0 4 4 5 9 2 4-1 4-6-11-2-1-1 4z" fill="#E2C6E3"/>
<path transform="translate(490,379)" d="m0 0 2 1 1 5-1 6-4 1-3-8 3-3h2z" fill="#E5CCE6"/>
<path transform="translate(125,150)" d="m0 0 2 2-2 3 4-1-4 5-4 3h-8l1-4v3l5-2 3-5z" fill="#ED96CC"/>
<path transform="translate(229,467)" d="m0 0 4 2-2 7 3 3-5-1-6-3 1-2h2l2-4z" fill="#C2ABD5"/>
<path transform="translate(169,170)" d="m0 0 2 2v8l-2 4-4 1-2 5-1-4 4-7z" fill="#FAAAD1"/>
<path transform="translate(294,483)" d="m0 0h1l1 6v11 3l-5-2 2-1v-16z" fill="#C8B0D8"/>
<path transform="translate(410,523)" d="m0 0 13 4v2l-5 1 1-2-15-1-3-2z" fill="#B8A3D1"/>
<path transform="translate(250,372)" d="m0 0 4 5 6 9h-5l-6-9z" fill="#CE85C9"/>
<path transform="translate(330,50)" d="m0 0 2 1v3l4 1 1-4 6-1 7 3-3 1-7-1-5 5-5-1-1-5z" fill="#E2C6E3"/>
<path transform="translate(115,184)" d="m0 0h1l-1 9-7 15-1-3 4-13z" fill="#FDFCFD"/>
<path transform="translate(513,334)" d="m0 0h2l2 2 1 3-5 6v3l-4 1 1-4z" fill="#F6E0EB"/>
<path transform="translate(462,261)" d="m0 0h2l7 8 4 2 2 7-4-2-4-4v-2h-2l-2-4-3-3z" fill="#FBB2D3"/>
<path transform="translate(131,232)" d="m0 0v3l-3 5-2 6-6-3-1-3 7-2z" fill="#E2C6E3"/>
<path transform="translate(322,437)" d="m0 0 4 4v9l-1 5-2-3-2-11v-3z" fill="#847EBA"/>
<path transform="translate(98,321)" d="m0 0h1v11h-1l-1 7-3-4-1-9 2-1 1 3z" fill="#B69FCF"/>
<path transform="translate(125,275)" d="m0 0 2 1-6 6 2 1-1 8-2 1-2-6-2-2 5-5z" fill="#EA90CA"/>
<path transform="translate(397,481)" d="m0 0 6 1 5 5-3 2v-3h-5l-1 2v-2l-4-1z" fill="#C7B1D8"/>
<path transform="translate(334,443)" d="m0 0 3 3 1 10-3 2-3-11v-3z" fill="#9187BF"/>
<path transform="translate(1500,399)" d="m0 0 7 6-1 3-14-3v-1h5v-2l3-1z" fill="#E151CB"/>
<path transform="translate(493,128)" d="m0 0 4 2 3 10-3-3-2 2-3-6z" fill="#FACDD9"/>
<path transform="translate(230,61)" d="m0 0 3 2-6 2-1 2h-2v2l-4 4-2 3-3-1 2-6 7-4z" fill="#E9C8E0"/>
<path transform="translate(279,45)" d="m0 0h5v4h3v2l-12-1 1-4z" fill="#CB7DC5"/>
<path transform="translate(511,204)" d="m0 0 1 4v2l-10 2 1-7 4 1h3z" fill="#FED3DB"/>
<path transform="translate(130,406)" d="m0 0 7 6 4 7v2h2l4 6-4-2-6-7-5-8z" fill="#C3ACD5"/>
<path transform="translate(579,362)" d="m0 0h1v8l-6 15-2 1 3-11z" fill="#EACFE4"/>
<path transform="translate(344,123)" d="m0 0 3 1v11l-3-1v-3h-2v-6z" fill="#FCBDD5"/>
<path transform="translate(568,238)" d="m0 0 3 1 5 8-1 3-2-5h-2l-1 3-2-1z" fill="#FDCED8"/>
<path transform="translate(200,88)" d="m0 0 5 1-1 3-5 2-4-1-1-4z" fill="#E88ECA"/>
<path transform="translate(139,266)" d="m0 0 2 1-8 7-6 1-2-2z" fill="#ED97CC"/>
<path transform="translate(352,522)" d="m0 0 4 1v2h2v2h-6l-7 1 2-5z" fill="#BCA7D3"/>
<path transform="translate(314,480)" d="m0 0 3 1 1 3-1 1-1 13-2-1z" fill="#C7B0D7"/>
<path transform="translate(358,476)" d="m0 0 4 1 1 7-4 2-1-2z" fill="#E6D7E9"/>
<path transform="translate(243,471)" d="m0 0h3l1 9-1 2-6-1 3-1z" fill="#7472B3"/>
<path transform="translate(145,122)" d="m0 0 2 1-18 18-1-3 10-9z" fill="#DFBBDD"/>
<path transform="translate(307,530)" d="m0 0 4 1 5 1 3 4-10-1-5-4z" fill="#D29FD1"/>
<path transform="translate(173,143)" d="m0 0h2v5l-2 6-1 2-2-3v-7z" fill="#FAA8D1"/>
<path transform="translate(296,421)" d="m0 0 5 2 3 4 3 2-2 1-6-2-3-4z" fill="#7875B5"/>
<path transform="translate(527,340)" d="m0 0 2 2-1 10-1 2h-2l-1-8h2z" fill="#F4ABD4"/>
<path transform="translate(195,106)" d="m0 0 2 3-13 7-2-1 6-6h5v-2z" fill="#FECED8"/>
<path transform="translate(240,44)" d="m0 0h4v2l-15 6-2-1 1-3h5z" fill="#E6CFE7"/>
<path transform="translate(395,537)" d="m0 0 6 1-3 3-2 1h-6l-1-3z" fill="#E6C9E4"/>
<path transform="translate(438,445)" d="m0 0h3l1 6-5 1-2-1v-3h2z" fill="#E9DDED"/>
<path transform="translate(177,428)" d="m0 0h2v2l5 2-1 3-8-3-2-1v-2z" fill="#D6BEDF"/>
<path transform="translate(501,279)" d="m0 0 7 1v2l2 1-5 3h-5v-5zm0 3 2 2v-2z" fill="#F4CBDB"/>
<path transform="translate(127,139)" d="m0 0 1 3-11 11 1-5 5-6z" fill="#F0E9F4"/>
<path transform="translate(470,86)" d="m0 0 7 4 1 2-5-1-1 2-6-3z" fill="#F5CCDB"/>
<path transform="translate(202,81)" d="m0 0h1v5l-3 3h-6l-1 3-1-2 7-7h3z" fill="#FCBBD4"/>
<path transform="translate(442,492)" d="m0 0 2 1-9 5-6-1-3-2 3-1 5 1 3-2z" fill="#DA99CF"/>
<path transform="translate(305,484)" d="m0 0 2 3 1 13h-2l-2-13z" fill="#CDB4DA"/>
<path transform="translate(1561,386)" d="m0 0 4 1v5l2 1-5-1-5-5z" fill="#DA27C6"/>
<path transform="translate(519,285)" d="m0 0 5 3v8l-2-4-4-1z" fill="#FCCED9"/>
<path transform="translate(338,526)" d="m0 0 5 1 1 2-3 2v3h-2l-2-3-1-2z" fill="#8F86BF"/>
<path transform="translate(144,130)" d="m0 0 2 4-5 5h-3v-3l5-5z" fill="#EA92CB"/>
<path transform="translate(410,444)" d="m0 0h3l1 2 2-1 3 1-1 4-7-1z" fill="#B6A1D0"/>
<path transform="translate(412,379)" d="m0 0 4 4-3 2-2-1-1 2-3-5z" fill="#FCF4F7"/>
<path transform="translate(284,490)" d="m0 0 2 4 1 6-4 1-1-3z" fill="#6B6CAF"/>
<path transform="translate(400,486)" d="m0 0h5l1 5h-7z" fill="#6B6CAF"/>
<path transform="translate(98,314)" d="m0 0h1v7l-4 2-1-5z" fill="#F9F6FA"/>
<path transform="translate(119,274)" d="m0 0 3 2-10 8-3 3 2-6 5-2v-2h2z" fill="#FCF7F9"/>
<path transform="translate(422,149)" d="m0 0 7 4 1 5h-3l-5-7z" fill="#FECDD7"/>
<path transform="translate(294,118)" d="m0 0 3 1v5l-4 2-1-4z" fill="#FED5DC"/>
<path transform="translate(338,521)" d="m0 0 7 3-1 3h-7v-5z" fill="#BBA6D2"/>
<path transform="translate(407,493)" d="m0 0 9 1-4 1-1 3h-6v-3h2z" fill="#B7A2D0"/>
<path transform="translate(245,465)" d="m0 0h2l2 5v4h-3v-3h-2z" fill="#D0B8DC"/>
<path transform="translate(415,481)" d="m0 0h4l-1 4-7 2v-2h2z" fill="#CFBBDD"/>
<path transform="translate(220,451)" d="m0 0 5 2 4 1v3l-4-1-5-2-1 2z" fill="#E2C7E3"/>
<path transform="translate(561,296)" d="m0 0 5 1 1 5h-5l-2-5z" fill="#C987C8"/>
<path transform="translate(371,522)" d="m0 0 5 1-2 4-5 4z" fill="#CBB3D9"/>
<path transform="translate(246,512)" d="m0 0 3 1v5l-6-1v-3z" fill="#E2C6E3"/>
<path transform="translate(387,539)" d="m0 0h2l1 4h-9l1-3z" fill="#F1C2DB"/>
<path transform="translate(378,154)" d="m0 0 3 1 2 4v4h-3z" fill="#F8A6D0"/>
<path transform="translate(505,150)" d="m0 0 4 4 1 5-4-3-4-1-1-3 4 1z" fill="#F9CDDA"/>
<path transform="translate(242,148)" d="m0 0h1l1 6-1 2 2 1-2 5-2-2v-8z" fill="#F49CCE"/>
<path transform="translate(332,121)" d="m0 0 3 2 3 1v2h-2v2h-3v-2h-2z" fill="#FFCFD8"/>
<path transform="translate(444,70)" d="m0 0 5 2 6 3-3 1-9-3z" fill="#F1CADD"/>
<path transform="translate(303,28)" d="m0 0h10v2l-8 1h-3z" fill="#EAD6EB"/>
<path transform="translate(444,160)" d="m0 0 2 4 3 1 1 5h-2v-2l-4-2-2-5z" fill="#FFCFD8"/>
<path transform="translate(354,138)" d="m0 0 3 1v10l-4-3 1-6z" fill="#F9B3D5"/>
<path transform="translate(279,116)" d="m0 0 2 1-1 6-3 4-1-3z" fill="#FDC4D8"/>
<path transform="translate(374,133)" d="m0 0 3 3v5l-3 2-1-3 2-4-2-1z" fill="#FFCFD8"/>
<path transform="translate(484,234)" d="m0 0h2l-2 7-3-1 1-5z" fill="#FBB2D2"/>
<path transform="translate(453,145)" d="m0 0 5 3 1 4-3 1-3-5z" fill="#FAA3D0"/>
<path transform="translate(304,124)" d="m0 0h3v5l-3 2-2-3z" fill="#FED2DB"/>
<path transform="translate(441,177)" d="m0 0 5 4 1 4-5-2z" fill="#FDCCD8"/>
<path transform="translate(214,153)" d="m0 0 4 1 1 6-4-2z" fill="#FFCFD8"/>
<path transform="translate(516,229)" d="m0 0 2 3 2 5-3 1-1-3 1-2-3-1 1-2z" fill="#EEC9DE"/>
<path transform="translate(353,130)" d="m0 0h3v5l-2 1-2-1z" fill="#FED8DF"/>
<path transform="translate(363,422)" d="m0 0 3 2v4h-3l-1-5z" fill="#FDFCFD"/>
<path transform="translate(472,307)" d="m0 0h2l1 7h-3z" fill="#FEDBE2"/>
<path transform="translate(352,122)" d="m0 0 2 3v4l-3-1-1-5z" fill="#FDF7F8"/>
<path transform="translate(446,331)" d="m0 0h2l1 5-3 2-1-4z" fill="#FBF8FB"/>
<path transform="translate(363,146)" d="m0 0 4 3-1 4-2-1z" fill="#FAA8D1"/>
<path transform="translate(448,146)" d="m0 0 2 2v6l-3-3z" fill="#FAA3D0"/>
<path transform="translate(353,431)" d="m0 0h1v5l-5-2-1-2z" fill="#FDFCFD"/>
<path transform="translate(445,349)" d="m0 0 3 1v6l-1-2h-2z" fill="#FDFCFD"/>
<path transform="translate(143,269)" d="m0 0h4l-1 4-2 1v-3l-2-1z" fill="#E88ECA"/>
<path transform="translate(464,396)" d="m0 0 5 1-2 2h-4z" fill="#FDF5F7"/>
<path transform="translate(462,307)" d="m0 0h2v7h-2z" fill="#FEDBE2"/>
<path transform="translate(426,279)" d="m0 0h2l1 6h-2z" fill="#FDFCFD"/>
<path transform="translate(475,171)" d="m0 0 4 2 1 5-2-1v-2h-2z" fill="#FFCFD8"/>
<path transform="translate(400,260)" d="m0 0 3 1-1 3h-3z" fill="#FDF5F7"/>
<path transform="translate(452,157)" d="m0 0 3 1v5h-2z" fill="#FDC1D5"/>
<path transform="translate(371,151)" d="m0 0 2 1-1 5-3-3z" fill="#FCB7D3"/>
<path transform="translate(512,193)" d="m0 0 2 3-1 3h-2v-5z" fill="#FFCFD8"/>
<path transform="translate(347,135)" d="m0 0 4 1v3h-3z" fill="#FEDAE1"/>
<path transform="translate(236,385)" d="m0 0 3 1v3h-3z" fill="#FDFCFD"/>
<path transform="translate(461,242)" d="m0 0 3 1-1 4h-2z" fill="#FFCFD8"/>
<path transform="translate(238,430)" d="m0 0 2 2-2 4-1-4z" fill="#FDFCFD"/>
<path transform="translate(506,229)" d="m0 0 2 1-1 4-2 1z" fill="#FFCFD8"/>
<path transform="translate(472,161)" d="m0 0 4 4h-3z" fill="#FFCFD8"/>
<path transform="translate(296,103)" d="m0 0 1 2-3 5-1-2z" fill="#FDC1D5"/>
<path transform="translate(336,483)" d="m0 0h1v9h-1z" fill="#E2C6E3"/>
<path transform="translate(502,253)" d="m0 0h2l-1 4-2 1z" fill="#FFCFD8"/>
<path transform="translate(467,188)" d="m0 0 5 5-4-2z" fill="#FFCFD8"/>
<path transform="translate(433,164)" d="m0 0 4 4-1 2-3-3z" fill="#FFCFD8"/>
<path transform="translate(347,120)" d="m0 0h2v5l-2-1z" fill="#FECFDB"/>
<path transform="translate(340,114)" d="m0 0 2 1v5l-2-1z" fill="#FFCFD8"/>
<path transform="translate(501,299)" d="m0 0 2 2-1 4z" fill="#FDFCFD"/>
<path transform="translate(518,225)" d="m0 0 3 2-1 3-2-3z" fill="#FED4DC"/>
<path transform="translate(222,150)" d="m0 0 3 3-1 3z" fill="#FFCFD8"/>
<path transform="translate(502,359)" d="m0 0h1v5l-2 1z" fill="#FDFCFD"/>
<path transform="translate(514,221)" d="m0 0 1 4h-2z" fill="#FFCFD8"/>
<path transform="translate(458,168)" d="m0 0h2l-1 4z" fill="#FFCFD8"/>
<path transform="translate(514,200)" d="m0 0h3v2h-3z" fill="#FFCFD8"/>
<path transform="translate(170,190)" d="m0 0 2 3-1 2z" fill="#FFCFD8"/>
<path transform="translate(508,189)" d="m0 0 2 4h-2z" fill="#FFCFD8"/>
<path transform="translate(473,177)" d="m0 0 2 1-1 3z" fill="#FFCFD8"/>
<path transform="translate(346,176)" d="m0 0h2v3h-2z" fill="#FDFCFD"/>
<path transform="translate(438,149)" d="m0 0 2 2-1 3z" fill="#FAA3D0"/>
<path transform="translate(433,144)" d="m0 0 2 1v2l-3-1z" fill="#FAA3D0"/>
<path transform="translate(471,394)" d="m0 0h2l-1 3z" fill="#E2C6E3"/>
<path transform="translate(457,304)" d="m0 0 1 3h-2z" fill="#FFCFD8"/>
<path transform="translate(477,278)" d="m0 0h2l-1 3z" fill="#FFCFD8"/>
<path transform="translate(195,242)" d="m0 0h2l-1 3z" fill="#FDFCFD"/>
<path transform="translate(478,237)" d="m0 0h2l-1 3z" fill="#FFCFD8"/>
<path transform="translate(517,205)" d="m0 0h1v5h-1z" fill="#FFCFD8"/>
<path transform="translate(366,131)" d="m0 0h1v5h-1z" fill="#FED8DF"/>
<path transform="translate(314,125)" d="m0 0 1 2-2 2z" fill="#FDFCFD"/>
<path transform="translate(268,108)" d="m0 0h1v5h-1z" fill="#FAA3D0"/>
<path transform="translate(503,354)" d="m0 0 1 4z" fill="#FDFCFD"/>
<path transform="translate(513,309)" d="m0 0 2 3h-2z" fill="#FDFCFD"/>
<path transform="translate(506,306)" d="m0 0v3z" fill="#FDFCFD"/>
<path transform="translate(501,249)" d="m0 0 2 1h-3z" fill="#FFCFD8"/>
<path transform="translate(495,240)" d="m0 0v3z" fill="#FEE5EA"/>
<path transform="translate(513,227)" d="m0 0 2 2-2 1z" fill="#FFCFD8"/>
<path transform="translate(519,217)" d="m0 0 1 3-2-1z" fill="#FFCFD8"/>
<path transform="translate(493,183)" d="m0 0 3 1h-3z" fill="#FDFCFD"/>
<path transform="translate(383,163)" d="m0 0v3z" fill="#E88ECA"/>
<path transform="translate(493,162)" d="m0 0 3 1h-3z" fill="#FEDAE1"/>
<path transform="translate(330,153)" d="m0 0v3z" fill="#FEDAE1"/>
<path transform="translate(319,483)" d="m0 0 2 2h-2z" fill="#F4EAF4"/>
<path transform="translate(491,376)" d="m0 0" fill="#EBD8EB"/>
<path transform="translate(492,373)" d="m0 0 2 2h-2z" fill="#EBD8EB"/>
<path transform="translate(517,322)" d="m0 0" fill="#FDFCFD"/>
<path transform="translate(516,318)" d="m0 0" fill="#FDFCFD"/>
<path transform="translate(503,309)" d="m0 0" fill="#FDFCFD"/>
<path transform="translate(494,293)" d="m0 0 2 2h-2z" fill="#FDFCFD"/>
<path transform="translate(496,260)" d="m0 0" fill="#FFCFD8"/>
<path transform="translate(446,259)" d="m0 0h2l-1 2z" fill="#CB7DC5"/>
<path transform="translate(496,253)" d="m0 0h2l-1 2z" fill="#FFCFD8"/>
<path transform="translate(501,245)" d="m0 0 1 2-2-1z" fill="#FFCFD8"/>
<path transform="translate(516,220)" d="m0 0 2 1-2 1z" fill="#FFCFD8"/>
<path transform="translate(472,193)" d="m0 0" fill="#FFCFD8"/>
<path transform="translate(498,189)" d="m0 0 2 2h-2z" fill="#FDFCFD"/>
<path transform="translate(494,174)" d="m0 0h2l-1 2z" fill="#FEDEE4"/>
<path transform="translate(470,169)" d="m0 0h2l-1 2z" fill="#FFCFD8"/>
<path transform="translate(498,167)" d="m0 0h2l-1 2z" fill="#FFCFD8"/>
<path transform="translate(314,151)" d="m0 0" fill="#FEDEE4"/>
<path transform="translate(350,140)" d="m0 0h2l-1 2z" fill="#FDFCFD"/>
<path transform="translate(417,133)" d="m0 0" fill="#FFCFD8"/>
<path transform="translate(384,127)" d="m0 0" fill="#FFCFD8"/>
<path transform="translate(378,441)" d="m0 0" fill="#B6A1D0"/>
<path transform="translate(493,371)" d="m0 0" fill="#FDFCFD"/>
<path transform="translate(512,351)" d="m0 0" fill="#FDFCFD"/>
<path transform="translate(506,312)" d="m0 0 2 1z" fill="#FDFCFD"/>
<path transform="translate(484,264)" d="m0 0" fill="#FFCFD8"/>
<path transform="translate(490,259)" d="m0 0" fill="#FDFCFD"/>
<path transform="translate(503,250)" d="m0 0 2 1z" fill="#FFCFD8"/>
<path transform="translate(488,244)" d="m0 0" fill="#FFCFD8"/>
<path transform="translate(492,239)" d="m0 0" fill="#FFCFD8"/>
<path transform="translate(509,227)" d="m0 0 2 1z" fill="#FFCFD8"/>
<path transform="translate(488,224)" d="m0 0" fill="#FEE5EA"/>
<path transform="translate(453,224)" d="m0 0" fill="#FDFCFD"/>
<path transform="translate(371,212)" d="m0 0" fill="#FDFCFD"/>
<path transform="translate(519,202)" d="m0 0" fill="#FFCFD8"/>
<path transform="translate(474,190)" d="m0 0 2 1z" fill="#FDFCFD"/>
<path transform="translate(492,187)" d="m0 0 2 1z" fill="#FDFCFD"/>
<path transform="translate(485,185)" d="m0 0" fill="#FDFCFD"/>
<path transform="translate(482,185)" d="m0 0" fill="#FDFCFD"/>
<path transform="translate(488,181)" d="m0 0" fill="#FDFCFD"/>
<path transform="translate(348,179)" d="m0 0" fill="#FDFCFD"/>
<path transform="translate(439,174)" d="m0 0" fill="#FFCFD8"/>
<path transform="translate(399,174)" d="m0 0" fill="#E88ECA"/>
<path transform="translate(438,172)" d="m0 0" fill="#FFCFD8"/>
<path transform="translate(179,172)" d="m0 0" fill="#FFCFD8"/>
<path transform="translate(396,170)" d="m0 0" fill="#E88ECA"/>
<path transform="translate(456,166)" d="m0 0" fill="#FFCFD8"/>
<path transform="translate(248,157)" d="m0 0" fill="#E88ECA"/>
<path transform="translate(440,155)" d="m0 0" fill="#FFCFD8"/>
<path transform="translate(236,150)" d="m0 0" fill="#FAA3D0"/>
<path transform="translate(431,143)" d="m0 0" fill="#FAA3D0"/>
<path transform="translate(215,142)" d="m0 0" fill="#FFCFD8"/>
<path transform="translate(345,140)" d="m0 0" fill="#FDFCFD"/>
<path transform="translate(362,139)" d="m0 0" fill="#FEE5EA"/>
<path transform="translate(416,131)" d="m0 0" fill="#FFCFD8"/>
<path transform="translate(397,131)" d="m0 0" fill="#FFCFD8"/>
<path transform="translate(403,129)" d="m0 0" fill="#FFCFD8"/>
<path transform="translate(262,129)" d="m0 0" fill="#FAA3D0"/>
<path transform="translate(366,128)" d="m0 0" fill="#FEE5EA"/>
<path transform="translate(385,125)" d="m0 0" fill="#FFCFD8"/>
<path transform="translate(300,120)" d="m0 0" fill="#FEE5EA"/>
<path transform="translate(275,119)" d="m0 0" fill="#FDFCFD"/>
<path transform="translate(343,118)" d="m0 0" fill="#FDFCFD"/>
<path transform="translate(308,118)" d="m0 0" fill="#FDFCFD"/>
<path transform="translate(282,110)" d="m0 0" fill="#FAA3D0"/>
<path transform="translate(356,486)" d="m0 0" fill="#E2C6E3"/>
<path transform="translate(350,455)" d="m0 0" fill="#B6A1D0"/>
<path transform="translate(397,448)" d="m0 0" fill="#B6A1D0"/>
<path transform="translate(378,447)" d="m0 0" fill="#B6A1D0"/>
<path transform="translate(378,444)" d="m0 0" fill="#B6A1D0"/>
<path transform="translate(418,436)" d="m0 0" fill="#B6A1D0"/>
<path transform="translate(429,432)" d="m0 0" fill="#B6A1D0"/>
<path transform="translate(180,412)" d="m0 0" fill="#B6A1D0"/>
<path transform="translate(179,411)" d="m0 0" fill="#B6A1D0"/>
<path transform="translate(482,404)" d="m0 0" fill="#E2C6E3"/>
<path transform="translate(174,403)" d="m0 0" fill="#B6A1D0"/>
<path transform="translate(473,400)" d="m0 0" fill="#E2C6E3"/>
<path transform="translate(475,390)" d="m0 0" fill="#FDFCFD"/>
<path transform="translate(316,341)" d="m0 0" fill="#FDFCFD"/>
<path transform="translate(368,340)" d="m0 0" fill="#FDFCFD"/>
<path transform="translate(369,339)" d="m0 0" fill="#FDFCFD"/>
<path transform="translate(159,328)" d="m0 0" fill="#CB7DC5"/>
<path transform="translate(160,324)" d="m0 0" fill="#CB7DC5"/>
<path transform="translate(158,322)" d="m0 0" fill="#CB7DC5"/>
<path transform="translate(324,316)" d="m0 0" fill="#FDFCFD"/>
<path transform="translate(511,312)" d="m0 0" fill="#FDFCFD"/>
<path transform="translate(488,310)" d="m0 0" fill="#FDFCFD"/>
<path transform="translate(511,308)" d="m0 0" fill="#FDFCFD"/>
<path transform="translate(508,308)" d="m0 0" fill="#FDFCFD"/>
<path transform="translate(480,308)" d="m0 0" fill="#FDFCFD"/>
<path transform="translate(510,307)" d="m0 0" fill="#FDFCFD"/>
<path transform="translate(503,305)" d="m0 0" fill="#FDFCFD"/>
<path transform="translate(508,304)" d="m0 0" fill="#FDFCFD"/>
<path transform="translate(506,304)" d="m0 0" fill="#FDFCFD"/>
<path transform="translate(494,300)" d="m0 0" fill="#FDFCFD"/>
<path transform="translate(496,297)" d="m0 0" fill="#FDFCFD"/>
<path transform="translate(493,292)" d="m0 0" fill="#FDFCFD"/>
<path transform="translate(499,280)" d="m0 0" fill="#FFCFD8"/>
<path transform="translate(235,280)" d="m0 0" fill="#CB7DC5"/>
<path transform="translate(506,278)" d="m0 0" fill="#FFCFD8"/>
<path transform="translate(495,275)" d="m0 0" fill="#FFCFD8"/>
<path transform="translate(499,274)" d="m0 0" fill="#FFCFD8"/>
<path transform="translate(197,272)" d="m0 0" fill="#FDFCFD"/>
<path transform="translate(507,271)" d="m0 0" fill="#FFCFD8"/>
<path transform="translate(507,262)" d="m0 0" fill="#FFCFD8"/>
<path transform="translate(504,261)" d="m0 0" fill="#FFCFD8"/>
<path transform="translate(501,261)" d="m0 0" fill="#FFCFD8"/>
<path transform="translate(448,261)" d="m0 0" fill="#CB7DC5"/>
<path transform="translate(497,251)" d="m0 0" fill="#FFCFD8"/>
<path transform="translate(515,244)" d="m0 0" fill="#FFCFD8"/>
<path transform="translate(514,243)" d="m0 0" fill="#FFCFD8"/>
<path transform="translate(491,241)" d="m0 0" fill="#FFCFD8"/>
<path transform="translate(513,240)" d="m0 0" fill="#E2C6E3"/>
<path transform="translate(491,238)" d="m0 0" fill="#FFCFD8"/>
<path transform="translate(513,237)" d="m0 0" fill="#E2C6E3"/>
<path transform="translate(499,237)" d="m0 0" fill="#FDFCFD"/>
<path transform="translate(508,235)" d="m0 0" fill="#FFCFD8"/>
<path transform="translate(499,231)" d="m0 0" fill="#FDFCFD"/>
<path transform="translate(511,225)" d="m0 0" fill="#FFCFD8"/>
<path transform="translate(489,223)" d="m0 0" fill="#FFCFD8"/>
<path transform="translate(366,211)" d="m0 0" fill="#FDFCFD"/>
<path transform="translate(522,207)" d="m0 0" fill="#FFCFD8"/>
<path transform="translate(468,207)" d="m0 0" fill="#FDFCFD"/>
<path transform="translate(165,206)" d="m0 0" fill="#FAA3D0"/>
<path transform="translate(516,204)" d="m0 0" fill="#FFCFD8"/>
<path transform="translate(515,203)" d="m0 0" fill="#FFCFD8"/>
<path transform="translate(161,203)" d="m0 0" fill="#FAA3D0"/>
<path transform="translate(479,202)" d="m0 0" fill="#FDFCFD"/>
<path transform="translate(161,199)" d="m0 0" fill="#FAA3D0"/>
<path transform="translate(499,187)" d="m0 0" fill="#FDFCFD"/>
<path transform="translate(506,186)" d="m0 0" fill="#FDFCFD"/>
<path transform="translate(497,186)" d="m0 0" fill="#FDFCFD"/>
<path transform="translate(2e3 184)" d="m0 0" fill="#FDFCFD"/>
<path transform="translate(508,183)" d="m0 0" fill="#FFCFD8"/>
<path transform="translate(499,182)" d="m0 0" fill="#FDFCFD"/>
<path transform="translate(433,180)" d="m0 0" fill="#FFCFD8"/>
<path transform="translate(181,179)" d="m0 0" fill="#FFCFD8"/>
<path transform="translate(487,178)" d="m0 0" fill="#FDFCFD"/>
<path transform="translate(431,178)" d="m0 0" fill="#FFCFD8"/>
<path transform="translate(430,177)" d="m0 0" fill="#FFCFD8"/>
<path transform="translate(440,176)" d="m0 0" fill="#FFCFD8"/>
<path transform="translate(429,175)" d="m0 0" fill="#FFCFD8"/>
<path transform="translate(437,171)" d="m0 0" fill="#FFCFD8"/>
<path transform="translate(396,168)" d="m0 0" fill="#E88ECA"/>
<path transform="translate(381,166)" d="m0 0" fill="#E88ECA"/>
<path transform="translate(176,166)" d="m0 0" fill="#FFCFD8"/>
<path transform="translate(474,160)" d="m0 0" fill="#FFCFD8"/>
<path transform="translate(375,159)" d="m0 0" fill="#FAA3D0"/>
<path transform="translate(465,158)" d="m0 0" fill="#FFCFD8"/>
<path transform="translate(374,158)" d="m0 0" fill="#FAA3D0"/>
<path transform="translate(201,156)" d="m0 0" fill="#FFCFD8"/>
<path transform="translate(195,154)" d="m0 0" fill="#FFCFD8"/>
<path transform="translate(490,153)" d="m0 0" fill="#FFCFD8"/>
<path transform="translate(452,153)" d="m0 0" fill="#FAA3D0"/>
<path transform="translate(194,153)" d="m0 0" fill="#FFCFD8"/>
<path transform="translate(459,152)" d="m0 0" fill="#FFCFD8"/>
<path transform="translate(208,152)" d="m0 0" fill="#FFCFD8"/>
<path transform="translate(185,152)" d="m0 0" fill="#FFCFD8"/>
<path transform="translate(402,151)" d="m0 0" fill="#FFCFD8"/>
<path transform="translate(207,151)" d="m0 0" fill="#FFCFD8"/>
<path transform="translate(198,151)" d="m0 0" fill="#FFCFD8"/>
<path transform="translate(446,150)" d="m0 0" fill="#FAA3D0"/>
<path transform="translate(197,150)" d="m0 0" fill="#FFCFD8"/>
<path transform="translate(221,149)" d="m0 0" fill="#FFCFD8"/>
<path transform="translate(223,148)" d="m0 0" fill="#FFCFD8"/>
<path transform="translate(446,146)" d="m0 0" fill="#FAA3D0"/>
<path transform="translate(236,146)" d="m0 0" fill="#FAA3D0"/>
<path transform="translate(360,145)" d="m0 0" fill="#FFCFD8"/>
<path transform="translate(224,145)" d="m0 0" fill="#FFCFD8"/>
<path transform="translate(221,145)" d="m0 0" fill="#FFCFD8"/>
<path transform="translate(213,143)" d="m0 0" fill="#FFCFD8"/>
<path transform="translate(430,141)" d="m0 0" fill="#FAA3D0"/>
<path transform="translate(369,141)" d="m0 0" fill="#FDFCFD"/>
<path transform="translate(361,141)" d="m0 0" fill="#FFCFD8"/>
<path transform="translate(348,140)" d="m0 0" fill="#FDFCFD"/>
<path transform="translate(399,134)" d="m0 0" fill="#FFCFD8"/>
<path transform="translate(398,133)" d="m0 0" fill="#FFCFD8"/>
<path transform="translate(404,131)" d="m0 0" fill="#FFCFD8"/>
<path transform="translate(417,128)" d="m0 0" fill="#FFCFD8"/>
<path transform="translate(365,126)" d="m0 0" fill="#FDFCFD"/>
<path transform="translate(348,126)" d="m0 0" fill="#FDFCFD"/>
<path transform="translate(376,125)" d="m0 0" fill="#FDFCFD"/>
<path transform="translate(341,124)" d="m0 0" fill="#FFCFD8"/>
<path transform="translate(340,123)" d="m0 0" fill="#FFCFD8"/>
<path transform="translate(362,122)" d="m0 0" fill="#FDFCFD"/>
<path transform="translate(342,122)" d="m0 0" fill="#FFCFD8"/>
<path transform="translate(276,118)" d="m0 0" fill="#FDFCFD"/>
<path transform="translate(280,96)" d="m0 0" fill="#FFCFD8"/>
</svg>
